<?xml version="1.0" encoding="UTF-8" standalone="no"?>
<!-- Created with Inkscape (http://www.inkscape.org/) -->

<svg
   version="1.1"
   id="svg10"
   xml:space="preserve"
   width="1710.407"
   height="828.98474"
   viewBox="0 0 1710.407 828.98474"
   sodipodi:docname="cuencahietogramahidrograma.svg"
   inkscape:version="1.3.2 (091e20e, 2023-11-25, custom)"
   xmlns:inkscape="http://www.inkscape.org/namespaces/inkscape"
   xmlns:sodipodi="http://sodipodi.sourceforge.net/DTD/sodipodi-0.dtd"
   xmlns="http://www.w3.org/2000/svg"
   xmlns:svg="http://www.w3.org/2000/svg"
   xmlns:rdf="http://www.w3.org/1999/02/22-rdf-syntax-ns#"
   xmlns:cc="http://creativecommons.org/ns#"
   xmlns:dc="http://purl.org/dc/elements/1.1/"><metadata
     id="metadata16"><rdf:RDF><cc:Work
         rdf:about=""><dc:format>image/svg+xml</dc:format><dc:type
           rdf:resource="http://purl.org/dc/dcmitype/StillImage" /></cc:Work></rdf:RDF></metadata><defs
     id="defs14"><clipPath
       clipPathUnits="userSpaceOnUse"
       id="clipPath1630"><path
         d="M 464.663,674.566 H 146.868 V 429.949 h 317.795 z"
         id="path1628"
         inkscape:connector-curvature="0" /></clipPath><clipPath
       clipPathUnits="userSpaceOnUse"
       id="clipPath1638"><path
         d="M 87.7,54.2 H 524.3 V 737.8 H 87.7 Z"
         id="path1636"
         inkscape:connector-curvature="0" /></clipPath><clipPath
       clipPathUnits="userSpaceOnUse"
       id="clipPath2746"><path
         d="m 134.979,375.841 h 342 v -258.96 h -342 z"
         id="path2744"
         inkscape:connector-curvature="0" /></clipPath><clipPath
       clipPathUnits="userSpaceOnUse"
       id="clipPath2968"><path
         d="M 0,-8 H 148.63301 V 0.800049 H 0 Z"
         id="path2966"
         inkscape:connector-curvature="0" /></clipPath></defs><sodipodi:namedview
     pagecolor="#ffffff"
     bordercolor="#666666"
     borderopacity="1"
     objecttolerance="10"
     gridtolerance="10"
     guidetolerance="10"
     inkscape:pageopacity="0"
     inkscape:pageshadow="2"
     inkscape:window-width="1920"
     inkscape:window-height="1046"
     id="namedview12"
     showgrid="false"
     inkscape:zoom="0.75092593"
     inkscape:cx="848.28606"
     inkscape:cy="325.59803"
     inkscape:window-x="-11"
     inkscape:window-y="-11"
     inkscape:window-maximized="1"
     inkscape:current-layer="g3"
     showguides="false"
     inkscape:showpageshadow="2"
     inkscape:pagecheckerboard="0"
     inkscape:deskcolor="#d1d1d1" /><g
     id="g18"
     inkscape:groupmode="layer"
     inkscape:label="hydrology a science natural"
     transform="matrix(1.3333333,0,0,-1.3333333,-184.59837,1001.833)"><g
       id="g5158"
       transform="matrix(1.0861311,0,0,1.0861311,-28.631365,-40.850403)"><g
         id="g5342"
         transform="matrix(0.92242996,0,0,0.92242996,7.4342053,49.118874)">












<g
   id="g266"
   transform="translate(37.429647)"><g
     transform="matrix(2.7390466,0,0,-2.7238756,905.34289,242.14259)"
     id="g2866" /><g
     id="g453"
     transform="matrix(0.95761344,0,0,0.95761344,26.430728,5.0826413)"><g
       id="g598"
       transform="translate(23.451825,-3.12691)">














<g
   id="g3"><g
     transform="matrix(2.7314611,0,0,2.7314611,886.44281,582.41837)"
     id="g2752"><path
       inkscape:connector-curvature="0"
       id="path2754"
       style="fill:#231f20;fill-opacity:1;fill-rule:nonzero;stroke:none"
       d="M 0,0 2.979,-8.447 5.921,0 H 0" /></g><g
     transform="matrix(2.7390466,0,0,-2.7238756,886.46627,582.41455)"
     id="g2756"><path
       inkscape:connector-curvature="0"
       id="path2758"
       style="fill:none;stroke:#231f20;stroke-width:0.3;stroke-linecap:butt;stroke-linejoin:miter;stroke-miterlimit:4;stroke-dasharray:none;stroke-opacity:1"
       d="M 0,0 2.971,8.47 5.905,0 H 0" /></g><g
     transform="matrix(2.7314611,0,0,2.7314611,1259.6018,763.73825)"
     id="g2760"><path
       inkscape:connector-curvature="0"
       id="path2762"
       style="fill:#231f20;fill-opacity:1;fill-rule:nonzero;stroke:none"
       d="M 0,0 7.569,-2.798 0,-5.595 V 0" /></g><g
     transform="matrix(2.7390466,0,0,-2.7238756,1259.6399,763.73478)"
     id="g2764"><path
       inkscape:connector-curvature="0"
       id="path2766"
       style="fill:none;stroke:#231f20;stroke-width:0.582;stroke-linecap:butt;stroke-linejoin:miter;stroke-miterlimit:4;stroke-dasharray:none;stroke-opacity:1"
       d="M 0,0 7.548,2.805 0,5.611 V 0" /></g><path
     inkscape:connector-curvature="0"
     id="path2768"
     style="fill:#57b2ed;fill-opacity:1;fill-rule:nonzero;stroke:none;stroke-width:2.73146"
     d="m 942.4241,698.3498 h 23.49057 v 57.55189 H 942.4241 Z" /><g
     style="fill:#57b2ed;fill-opacity:1"
     transform="matrix(2.7390466,0,0,-2.7238756,942.44964,755.89816)"
     id="g2770"><path
       inkscape:connector-curvature="0"
       id="path2772"
       style="fill:#57b2ed;fill-opacity:1;stroke:#231f20;stroke-width:0.582;stroke-linecap:butt;stroke-linejoin:miter;stroke-miterlimit:4;stroke-dasharray:none;stroke-opacity:1"
       d="M 0,0 H 8.577 V 21.129 H 0 V 0" /></g><path
     inkscape:connector-curvature="0"
     id="path2774"
     style="fill:#57b2ed;fill-opacity:1;fill-rule:nonzero;stroke:none;stroke-width:2.73146"
     d="m 965.61967,646.74977 h 23.49057 v 109.15192 h -23.49057 z" /><g
     style="fill:#57b2ed;fill-opacity:1"
     transform="matrix(2.7390466,0,0,-2.7238756,965.64663,755.89816)"
     id="g2776"><path
       inkscape:connector-curvature="0"
       id="path2778"
       style="fill:#57b2ed;fill-opacity:1;stroke:#231f20;stroke-width:0.582;stroke-linecap:butt;stroke-linejoin:miter;stroke-miterlimit:4;stroke-dasharray:none;stroke-opacity:1"
       d="M 0,0 H 8.576 V 40.072 H 0 V 0" /></g><path
     inkscape:connector-curvature="0"
     id="path2780"
     style="fill:#57b2ed;fill-opacity:1;fill-rule:nonzero;stroke:none;stroke-width:2.73146"
     d="m 989.11024,606.66831 h 23.48826 v 149.23338 h -23.48826 z" /><g
     style="fill:#57b2ed;fill-opacity:1"
     transform="matrix(2.7390466,0,0,-2.7238756,989.13668,755.89816)"
     id="g2782"><path
       inkscape:connector-curvature="0"
       id="path2784"
       style="fill:#57b2ed;fill-opacity:1;stroke:#231f20;stroke-width:0.582;stroke-linecap:butt;stroke-linejoin:miter;stroke-miterlimit:4;stroke-dasharray:none;stroke-opacity:1"
       d="M 0,0 H 8.575 V 54.787 H 0 V 0" /></g><path
     inkscape:connector-curvature="0"
     id="path2786"
     style="fill:#57b2ed;fill-opacity:1;fill-rule:nonzero;stroke:none;stroke-width:2.73146"
     d="m 1012.5958,559.88111 h 23.4878 v 196.02058 h -23.4878 z" /><g
     style="fill:#57b2ed;fill-opacity:1"
     transform="matrix(2.7390466,0,0,-2.7238756,1012.6244,755.89816)"
     id="g2788"><path
       inkscape:connector-curvature="0"
       id="path2790"
       style="fill:#57b2ed;fill-opacity:1;stroke:#231f20;stroke-width:0.582;stroke-linecap:butt;stroke-linejoin:miter;stroke-miterlimit:4;stroke-dasharray:none;stroke-opacity:1"
       d="M 0,0 H 8.575 V 71.964 H 0 V 0" /></g><path
     inkscape:connector-curvature="0"
     id="path2792"
     style="fill:#57b2ed;fill-opacity:1;fill-rule:nonzero;stroke:none;stroke-width:2.73146"
     d="m 1199.2283,741.14087 h 23.4906 v 14.03152 h -23.4906 z" /><g
     style="fill:#57b2ed;fill-opacity:1"
     transform="matrix(2.7390466,0,0,-2.7238756,1199.2631,755.16821)"
     id="g2794"><path
       inkscape:connector-curvature="0"
       id="path2796"
       style="fill:#57b2ed;fill-opacity:1;stroke:#231f20;stroke-width:0.582;stroke-linecap:butt;stroke-linejoin:miter;stroke-miterlimit:4;stroke-dasharray:none;stroke-opacity:1"
       d="M 0,0 H 8.577 V 5.152 H 0 V 0" /></g><path
     inkscape:connector-curvature="0"
     id="path2798"
     style="fill:#57b2ed;fill-opacity:1;fill-rule:nonzero;stroke:none;stroke-width:2.73146"
     d="m 1059.23,669.76779 h 23.4878 v 86.13663 H 1059.23 Z" /><g
     style="fill:#57b2ed;fill-opacity:1"
     transform="matrix(2.7390466,0,0,-2.7238756,1059.2595,755.89816)"
     id="g2800"><path
       inkscape:connector-curvature="0"
       id="path2802"
       style="fill:#57b2ed;fill-opacity:1;stroke:#231f20;stroke-width:0.582;stroke-linecap:butt;stroke-linejoin:miter;stroke-miterlimit:4;stroke-dasharray:none;stroke-opacity:1"
       d="M 0,0 H 8.576 V 31.623 H 0 V 0" /></g><path
     inkscape:connector-curvature="0"
     id="path2804"
     style="fill:#57b2ed;fill-opacity:1;fill-rule:nonzero;stroke:none;stroke-width:2.73146"
     d="m 1082.7178,693.73636 h 23.4906 v 62.16806 h -23.4906 z" /><g
     style="fill:#57b2ed;fill-opacity:1"
     transform="matrix(2.7390466,0,0,-2.7238756,1082.7495,755.89816)"
     id="g2806"><path
       inkscape:connector-curvature="0"
       id="path2808"
       style="fill:#57b2ed;fill-opacity:1;stroke:#231f20;stroke-width:0.582;stroke-linecap:butt;stroke-linejoin:miter;stroke-miterlimit:4;stroke-dasharray:none;stroke-opacity:1"
       d="M 0,0 H 8.577 V 22.823 H 0 V 0" /></g><path
     inkscape:connector-curvature="0"
     id="path2810"
     style="fill:#57b2ed;fill-opacity:1;fill-rule:nonzero;stroke:none;stroke-width:2.73146"
     d="m 1105.6949,720.93899 h 23.4851 v 34.9627 h -23.4851 z" /><g
     style="fill:#57b2ed;fill-opacity:1"
     transform="matrix(2.7390466,0,0,-2.7238756,1105.7274,755.89816)"
     id="g2812"><path
       inkscape:connector-curvature="0"
       id="path2814"
       style="fill:#57b2ed;fill-opacity:1;stroke:#231f20;stroke-width:0.582;stroke-linecap:butt;stroke-linejoin:miter;stroke-miterlimit:4;stroke-dasharray:none;stroke-opacity:1"
       d="M 0,0 H 8.574 V 12.836 H 0 V 0" /></g><path
     inkscape:connector-curvature="0"
     id="path2816"
     style="fill:#57b2ed;fill-opacity:1;fill-rule:nonzero;stroke:none;stroke-width:2.73146"
     d="m 1128.9642,675.35363 h 23.4824 v 80.55079 h -23.4824 z" /><g
     style="fill:#57b2ed;fill-opacity:1"
     transform="matrix(2.7390466,0,0,-2.7238756,1128.9983,755.89816)"
     id="g2818"><path
       inkscape:connector-curvature="0"
       id="path2820"
       style="fill:#57b2ed;fill-opacity:1;stroke:#231f20;stroke-width:0.582;stroke-linecap:butt;stroke-linejoin:miter;stroke-miterlimit:4;stroke-dasharray:none;stroke-opacity:1"
       d="M 0,0 H 8.573 V 29.572 H 0 V 0" /></g><path
     inkscape:connector-curvature="0"
     id="path2822"
     style="fill:#57b2ed;fill-opacity:1;fill-rule:nonzero;stroke:none;stroke-width:2.73146"
     d="m 1152.4466,715.70277 h 23.4905 v 40.20165 h -23.4905 z" /><g
     style="fill:#57b2ed;fill-opacity:1"
     transform="matrix(2.7390466,0,0,-2.7238756,1152.4829,755.89816)"
     id="g2824"><path
       inkscape:connector-curvature="0"
       id="path2826"
       style="fill:#57b2ed;fill-opacity:1;stroke:#231f20;stroke-width:0.582;stroke-linecap:butt;stroke-linejoin:miter;stroke-miterlimit:4;stroke-dasharray:none;stroke-opacity:1"
       d="M 0,0 H 8.576 V 14.759 H 0 V 0" /></g><path
     inkscape:connector-curvature="0"
     id="path2828"
     style="fill:#57b2ed;fill-opacity:1;fill-rule:nonzero;stroke:none;stroke-width:2.73146"
     d="m 1035.7039,626.24469 h 23.4879 v 129.65973 h -23.4879 z" /><g
     style="fill:#57b2ed;fill-opacity:1"
     transform="matrix(2.7390466,0,0,-2.7238756,1035.7338,755.89816)"
     id="g2830"><path
       inkscape:connector-curvature="0"
       id="path2832"
       style="fill:#57b2ed;fill-opacity:1;stroke:#231f20;stroke-width:0.582;stroke-linecap:butt;stroke-linejoin:miter;stroke-miterlimit:4;stroke-dasharray:none;stroke-opacity:1"
       d="M 0,0 H 8.575 V 47.601 H 0 V 0" /></g><path
     inkscape:connector-curvature="0"
     id="path2834"
     style="fill:#57b2ed;fill-opacity:1;fill-rule:nonzero;stroke:none;stroke-width:2.73146"
     d="m 1175.4946,729.666 h 23.4879 v 26.23569 h -23.4879 z" /><g
     style="fill:#57b2ed;fill-opacity:1"
     transform="matrix(2.7390466,0,0,-2.7238756,1175.5293,755.89816)"
     id="g2836"><path
       inkscape:connector-curvature="0"
       id="path2838"
       style="fill:#57b2ed;fill-opacity:1;stroke:#231f20;stroke-width:0.582;stroke-linecap:butt;stroke-linejoin:miter;stroke-miterlimit:4;stroke-dasharray:none;stroke-opacity:1"
       d="M 0,0 H 8.575 V 9.632 H 0 V 0" /></g><path
     inkscape:connector-curvature="0"
     id="path2840"
     style="fill:#57b2ed;fill-opacity:1;fill-rule:nonzero;stroke:none;stroke-width:2.73146"
     d="m 918.19331,724.79581 h 23.48784 v 31.10861 h -23.48784 z" /><g
     style="fill:#57b2ed;fill-opacity:1"
     transform="matrix(2.7390466,0,0,-2.7238756,918.21729,755.89816)"
     id="g2842"><path
       inkscape:connector-curvature="0"
       id="path2844"
       style="fill:#57b2ed;fill-opacity:1;stroke:#231f20;stroke-width:0.582;stroke-linecap:butt;stroke-linejoin:miter;stroke-miterlimit:4;stroke-dasharray:none;stroke-opacity:1"
       d="M 0,0 H 8.575 V 11.42 H 0 V 0" /></g><path
     inkscape:connector-curvature="0"
     id="path2846"
     style="fill:#57b2ed;fill-opacity:1;fill-rule:nonzero;stroke:none;stroke-width:2.73146"
     d="m 1222.2791,745.35005 h 23.4878 v 10.55437 h -23.4878 z" /><g
     style="fill:#57b2ed;fill-opacity:1"
     transform="matrix(2.7390466,0,0,-2.7238756,1222.3177,755.89816)"
     id="g2848"><path
       inkscape:connector-curvature="0"
       id="path2850"
       style="fill:#57b2ed;fill-opacity:1;stroke:#231f20;stroke-width:0.582;stroke-linecap:butt;stroke-linejoin:miter;stroke-miterlimit:4;stroke-dasharray:none;stroke-opacity:1"
       d="M 0,0 H 8.575 V 3.874 H 0 V 0" /></g><text
     y="-752.3985"
     x="1288.371"
     id="text2854"
     style="font-variant:normal;font-weight:normal;font-size:25.4493px;font-family:'Times New Roman';-inkscape-font-specification:TimesNewRomanPSMT;writing-mode:lr-tb;fill:#231f20;fill-opacity:1;fill-rule:nonzero;stroke:none;stroke-width:2.72395"
     transform="scale(1.0027568,-0.99725078)"><tspan
       style="stroke-width:2.72395"
       id="tspan2852"
       sodipodi:role="line"
       x="1288.371"
       y="-752.3985">tiempo [h]</tspan></text><g
     transform="matrix(2.7314611,0,0,2.7314611,916.2649,242.14393)"
     id="g2862"><path
       inkscape:connector-curvature="0"
       id="path2864"
       style="fill:#bddcf9;fill-opacity:1;fill-rule:nonzero;stroke:none"
       d="M 0,0 C 5.844,1.769 12.042,2.022 19.21,13.823 28.241,28.692 34.004,47.751 38.305,70 43.041,94.508 47.056,95.319 47.056,95.319 52.067,102.341 59.785,81.868 61.377,74.748 62.951,67.701 69.679,48.812 76.748,38.41 95.804,10.36 130.612,0.022 130.612,0.022" /></g><path
     inkscape:connector-curvature="0"
     id="path2868"
     style="fill:none;stroke:#231f20;stroke-width:1.5897;stroke-linecap:butt;stroke-linejoin:miter;stroke-miterlimit:4;stroke-dasharray:none;stroke-opacity:1"
     d="m 916.28708,242.14259 c 15.96316,4.83216 32.89594,5.52402 52.47465,37.75836 24.66785,40.61026 40.40937,92.6717 52.15717,153.44136 10.655,55.13606 20.6832,65.18657 22.9418,68.12641 l 0.3291,0.42838 c 13.6897,19.18427 35.405,-36.13522 39.7546,-55.58641 4.2975,-19.24691 22.6793,-70.84256 41.9868,-99.25258 52.0501,-76.61718 147.1306,-104.85559 147.1306,-104.85559 m 18.9049,-59.119 H 895.35802 v 337.82867"
     sodipodi:nodetypes="cccsccccccc" /><g
     transform="matrix(2.7314611,0,0,2.7314611,1278.2467,175.10568)"
     id="g2870"><path
       inkscape:connector-curvature="0"
       id="path2872"
       style="fill:#231f20;fill-opacity:1;fill-rule:nonzero;stroke:none"
       d="M 0,0 8.493,2.963 0,5.888 V 0" /></g><g
     transform="matrix(2.7390466,0,0,-2.7238756,1278.2854,175.10254)"
     id="g2874"><path
       inkscape:connector-curvature="0"
       id="path2876"
       style="fill:none;stroke:#231f20;stroke-width:0.3;stroke-linecap:butt;stroke-linejoin:miter;stroke-miterlimit:4;stroke-dasharray:none;stroke-opacity:1"
       d="M 0,0 8.469,-2.971 0,-5.905 V 0" /></g><g
     transform="matrix(2.7314611,0,0,2.7314611,887.30595,507.31141)"
     id="g2878"><path
       inkscape:connector-curvature="0"
       id="path2880"
       style="fill:#231f20;fill-opacity:1;fill-rule:nonzero;stroke:none"
       d="M 0,0 2.812,7.527 5.627,0 H 0" /></g><g
     transform="matrix(2.7390466,0,0,-2.7238756,887.3299,507.30641)"
     id="g2882"><path
       inkscape:connector-curvature="0"
       id="path2884"
       style="fill:none;stroke:#231f20;stroke-width:0.582;stroke-linecap:butt;stroke-linejoin:miter;stroke-miterlimit:4;stroke-dasharray:none;stroke-opacity:1"
       d="M 0,0 2.805,-7.548 5.612,0 H 0" /></g><text
     y="829.24005"
     x="311"
     id="text2890"
     style="font-variant:normal;font-weight:normal;font-size:25.4493px;font-family:'Times New Roman';-inkscape-font-specification:TimesNewRomanPSMT;writing-mode:lr-tb;fill:#231f20;fill-opacity:1;fill-rule:nonzero;stroke:none;stroke-width:2.72395"
     transform="matrix(0,0.99725078,1.0027568,0,0,0)"><tspan
       style="stroke-width:2.72395"
       id="tspan2888"
       sodipodi:role="line"
       x="311"
       y="829.24005">Descarga</tspan></text><text
     y="858.56122"
     x="332.57391"
     id="text2890-3"
     style="font-variant:normal;font-weight:normal;font-size:25.4493px;font-family:'Times New Roman';-inkscape-font-specification:TimesNewRomanPSMT;writing-mode:lr-tb;fill:#231f20;fill-opacity:1;fill-rule:nonzero;stroke:none;stroke-width:2.72395"
     transform="matrix(0,0.99725078,1.0027568,0,0,0)"><tspan
       style="stroke-width:2.72395"
       id="tspan2888-8"
       sodipodi:role="line"
       x="332.57391"
       y="858.56122">[m<tspan
   style="font-size:65%;baseline-shift:super"
   id="tspan2">3</tspan>/s]</tspan></text><text
     y="852.935"
     x="630.19727"
     id="text2890-3-4"
     style="font-variant:normal;font-weight:normal;font-size:25.4493px;font-family:'Times New Roman';-inkscape-font-specification:TimesNewRomanPSMT;writing-mode:lr-tb;fill:#231f20;fill-opacity:1;fill-rule:nonzero;stroke:none;stroke-width:2.72395"
     transform="matrix(0,0.99725078,1.0027568,0,0,0)"><tspan
       style="stroke-width:2.72395"
       id="tspan2888-8-0"
       sodipodi:role="line"
       x="630.19727"
       y="852.935">[mm/h]</tspan></text><text
     y="852.07233"
     x="356.41174"
     id="text2894"
     style="font-variant:normal;font-weight:normal;font-size:19.087px;font-family:'Times New Roman';-inkscape-font-specification:TimesNewRomanPSMT;writing-mode:lr-tb;fill:#231f20;fill-opacity:1;fill-rule:nonzero;stroke:none;stroke-width:2.72395"
     transform="matrix(0,0.99724899,1.0027586,0,0,0)"><tspan
       style="stroke-width:2.72395"
       id="tspan2892"
       y="852.07233"
       x="356.41174" /></text><g
     transform="matrix(2.7390466,0,0,-2.7238756,1051.3445,521.94997)"
     id="g2900"><path
       inkscape:connector-curvature="0"
       id="path2902"
       style="fill:none;stroke:#231f20;stroke-width:1.165;stroke-linecap:butt;stroke-linejoin:miter;stroke-miterlimit:4;stroke-dasharray:1.91, 1.91;stroke-dashoffset:0;stroke-opacity:1"
       d="M 0,0 V 122.977 M -48.794,81.721 v 42.05" /></g><g
     transform="matrix(2.7390466,0,0,-2.7238756,939.04856,229.0026)"
     id="g2904"><path
       inkscape:connector-curvature="0"
       id="path2906"
       style="fill:none;stroke:#231f20;stroke-width:0.582;stroke-linecap:butt;stroke-linejoin:miter;stroke-miterlimit:4;stroke-dasharray:none;stroke-opacity:1"
       d="M 0,0 H 31.492" /></g><g
     transform="matrix(2.7314611,0,0,2.7314611,1032.5546,232.14129)"
     id="g2908"><path
       inkscape:connector-curvature="0"
       id="path2910"
       style="fill:#231f20;fill-opacity:1;fill-rule:nonzero;stroke:none"
       d="m 0,0 c -1.865,0.561 -3.077,1.077 -4.572,1.674 v -5.657 c 0.535,0.251 2.707,1.114 4.572,1.674 1.995,0.598 3.805,1.008 4.978,1.153 C 3.805,-1.009 1.995,-0.598 0,0" /></g><g
     transform="matrix(2.7314611,0,0,2.7314611,931.74682,225.86439)"
     id="g2912"><path
       inkscape:connector-curvature="0"
       id="path2914"
       style="fill:#231f20;fill-opacity:1;fill-rule:nonzero;stroke:none"
       d="M 0,0 C 1.865,-0.561 3.077,-1.074 4.572,-1.674 V 3.984 C 4.037,3.732 1.865,2.871 0,2.312 -1.995,1.712 -3.803,1.302 -4.976,1.156 -3.803,1.009 -1.995,0.6 0,0" /></g><text
     y="-202.70029"
     x="973.48962"
     id="text2918"
     style="font-style:italic;font-variant:normal;font-size:25.4493px;font-family:'Times New Roman';-inkscape-font-specification:TimesNewRomanPS-ItalicMT;writing-mode:lr-tb;fill:#231f20;fill-opacity:1;fill-rule:nonzero;stroke:none;stroke-width:2.72395"
     transform="scale(1.0027568,-0.99725078)"><tspan
       style="stroke-width:2.72395"
       id="tspan2916"
       y="-202.70029"
       x="973.48962">t<tspan
   style="font-size:65%;baseline-shift:sub"
   id="tspan6">m</tspan></tspan></text><text
     y="-519.80316"
     x="1100.65"
     id="text2926"
     style="font-style:italic;font-variant:normal;font-size:25.4493px;font-family:'Times New Roman';-inkscape-font-specification:TimesNewRomanPS-ItalicMT;writing-mode:lr-tb;fill:#231f20;fill-opacity:1;fill-rule:nonzero;stroke:none;stroke-width:2.72395"
     transform="scale(1.0027568,-0.99725078)"><tspan
       style="stroke-width:2.72395"
       id="tspan2924"
       y="-519.80316"
       x="1100.65">Q<tspan
   style="font-size:65%;baseline-shift:sub"
   id="tspan5">max</tspan></tspan></text><g
     transform="matrix(2.7390466,0,0,-2.7238756,1056.4199,504.53622)"
     id="g2932"><path
       inkscape:connector-curvature="0"
       id="path2934"
       style="fill:none;stroke:#231f20;stroke-width:1.165;stroke-linecap:butt;stroke-linejoin:miter;stroke-miterlimit:4;stroke-dasharray:4.659, 4.659;stroke-dashoffset:0;stroke-opacity:1"
       d="M 0,0 H 48.753" /></g><text
     y="1081.2336"
     x="292.31705"
     id="text2938"
     style="font-style:italic;font-variant:normal;font-size:25.4493px;font-family:'Times New Roman';-inkscape-font-specification:TimesNewRomanPS-ItalicMT;writing-mode:lr-tb;fill:#231f20;fill-opacity:1;fill-rule:nonzero;stroke:none;stroke-width:2.72395"
     transform="matrix(0,0.99725078,1.0027568,0,0,0)"><tspan
       style="stroke-width:2.72395"
       id="tspan2936"
       y="1081.2336"
       x="292.31705">V<tspan
   style="font-size:65%;baseline-shift:sub"
   id="tspan4">max</tspan></tspan></text><g
     transform="matrix(2.7390466,0,0,-2.7238756,894.49442,568.80608)"
     id="g2948"><path
       inkscape:connector-curvature="0"
       id="path2950"
       style="fill:none;stroke:#231f20;stroke-width:0.582;stroke-linecap:butt;stroke-linejoin:miter;stroke-miterlimit:4;stroke-dasharray:none;stroke-opacity:1"
       d="M 0,0 V -68.633 H 138.305" /></g><text
     y="-125.21716"
     x="967.39471"
     id="text2958"
     style="font-variant:normal;font-weight:normal;font-size:24.5831px;font-family:'Times New Roman';-inkscape-font-specification:TimesNewRoman;writing-mode:lr-tb;fill:#191919;fill-opacity:1;fill-rule:nonzero;stroke:none;stroke-width:2.73146"
     transform="scale(1,-1)"><tspan
       style="stroke-width:2.73146"
       id="tspan2956"
       sodipodi:role="line"
       x="967.39471"
       y="-125.21716">Hietograma e Hidrograma</tspan></text><text
     style="font-variant:normal;font-weight:normal;font-size:24.5831px;font-family:'Times New Roman';-inkscape-font-specification:TimesNewRoman;writing-mode:lr-tb;fill:#191919;fill-opacity:1;fill-rule:nonzero;stroke:none;stroke-width:2.73146"
     id="text2958-7-3-8"
     x="610.97852"
     y="826.69971"
     transform="matrix(-0.0028477,0.99999595,0.99999595,0.0028477,0,0)"><tspan
       y="826.69971"
       x="610.97852"
       sodipodi:role="line"
       id="tspan2956-6-7-5"
       style="stroke-width:2.73146">Intensidad</tspan></text><text
     y="-178.11172"
     x="1304.1387"
     id="text2854-8"
     style="font-variant:normal;font-weight:normal;font-size:25.4493px;font-family:'Times New Roman';-inkscape-font-specification:TimesNewRomanPSMT;writing-mode:lr-tb;fill:#231f20;fill-opacity:1;fill-rule:nonzero;stroke:none;stroke-width:2.72395"
     transform="scale(1.0027568,-0.99725077)"><tspan
       style="stroke-width:2.72395"
       id="tspan2852-7"
       sodipodi:role="line"
       x="1304.1387"
       y="-178.11172">tiempo [h]</tspan></text><g
     id="g2"
     transform="matrix(0.10423033,0,0,0.10423033,61.581206,137.14089)"><g
       id="g1"><g
         id="g70"
         transform="matrix(10,0,0,10,-15.000001,0)"><text
           xml:space="preserve"
           transform="matrix(1,0,0,-1,126.625,75.6363)"
           style="font-variant:normal;font-weight:normal;font-size:24px;font-family:'Times New Roman';-inkscape-font-specification:TimesNewRomanPSMT;writing-mode:lr-tb;fill:#191919;fill-opacity:1;fill-rule:nonzero;stroke:none"
           id="text74"><tspan
             sodipodi:role="line"
             id="tspan72"
             x="0"
             y="0"
             style="font-style:normal;font-variant:normal;font-weight:normal;font-stretch:normal;font-size:24px;font-family:'Times New Roman';-inkscape-font-specification:'Times New Roman, '">Cuenca como Sistema Hidrológico</tspan></text></g><path
         d="m 4471.56,2419.65 340.16,-1.49 5.9,-2.93 2.97,-5.93 -2.97,-7.39 -5.9,-2.96 -340.16,1.48 -5.9,2.97 -2.96,5.9 2.96,7.38 z m 315,63.59 147.89,-73.94 -147.89,-73.95"
         style="fill:#000000;fill-opacity:1;fill-rule:nonzero;stroke:none"
         id="path76" /><path
         d="m 1419.1,4690.98 2.93,-3016.88"
         style="fill:none;stroke:#000000;stroke-width:49.2953;stroke-linecap:butt;stroke-linejoin:round;stroke-miterlimit:10;stroke-dasharray:49.2953, 49.2953;stroke-dashoffset:0;stroke-opacity:1"
         id="path78" /><path
         d="m 4440.39,2383.95 c -232.19,-59.15 -1817.5,29.57 -2318.83,177.46 -502.81,147.89 -658.12,502.81 -696.56,709.88 -38.44,207.03 232.19,473.2 464.38,532.38 232.18,59.14 656.6,-29.57 927.22,-177.46 270.63,-147.89 425.94,-502.81 696.56,-709.88 269.14,-207.03 1159.42,-473.21 927.23,-532.38"
         style="fill:none;fill-opacity:1;fill-rule:evenodd;stroke:none"
         id="path80" /><path
         d="m 4440.39,2383.95 c -232.19,-59.15 -1817.5,29.57 -2318.83,177.46 -502.81,147.89 -658.12,502.81 -696.56,709.88 -38.44,207.03 232.19,473.2 464.38,532.38 232.18,59.14 656.6,-29.57 927.22,-177.46 270.63,-147.89 425.94,-502.81 696.56,-709.88 269.14,-207.03 1159.42,-473.21 927.23,-532.38 z m 0,0 c -598.94,88.75 -1197.85,177.46 -1623.79,354.92 -424.41,177.46 -771.95,591.56 -927.22,709.88 m 1443.35,-866.64 c -248.43,161.21 -498.35,320.94 -597.46,482.11 -99.1,161.21 0,403.75 0,483.59 m -202.61,-690.62 c -270.63,59.14 -541.25,118.32 -695.04,177.46 -153.83,59.14 -193.75,147.89 -232.19,177.46"
         style="fill:none;stroke:#000000;stroke-width:18.4857;stroke-linecap:round;stroke-linejoin:round;stroke-miterlimit:10;stroke-dasharray:none;stroke-opacity:1"
         id="path82" /><path
         d="m 4440.39,4513.52 1.49,-2839.42"
         style="fill:none;stroke:#000000;stroke-width:49.2953;stroke-linecap:butt;stroke-linejoin:round;stroke-miterlimit:10;stroke-dasharray:49.2953, 49.2953;stroke-dashoffset:0;stroke-opacity:1"
         id="path84" /><path
         d="m 2927.54,5045.9 c -832.62,0 -1508.44,-198.17 -1508.44,-443.67 0,-243.99 675.82,-443.64 1508.44,-443.64 832.58,0 1508.44,199.65 1508.44,443.64 0,245.5 -675.86,443.67 -1508.44,443.67"
         style="fill:none;fill-opacity:1;fill-rule:evenodd;stroke:none"
         id="path86" /><path
         d="m 2927.54,5045.9 c -832.62,0 -1508.44,-198.17 -1508.44,-443.67 0,-243.99 675.82,-443.64 1508.44,-443.64 832.58,0 1508.44,199.65 1508.44,443.64 0,245.5 -675.86,443.67 -1508.44,443.67 z"
         style="fill:none;stroke:#000000;stroke-width:49.2953;stroke-linecap:butt;stroke-linejoin:round;stroke-miterlimit:10;stroke-dasharray:49.2953, 49.2953;stroke-dashoffset:0;stroke-opacity:1"
         id="path88" /><path
         d="m 2927.54,2206.48 c -832.62,0 -1508.44,-198.16 -1508.44,-443.63 0,-244.02 675.82,-443.67 1508.44,-443.67 832.58,0 1508.44,199.65 1508.44,443.67 0,245.47 -675.86,443.63 -1508.44,443.63"
         style="fill:none;fill-opacity:1;fill-rule:evenodd;stroke:none"
         id="path90" /><path
         d="m 2927.54,2206.48 c -832.62,0 -1508.44,-198.16 -1508.44,-443.63 0,-244.02 675.82,-443.67 1508.44,-443.67 832.58,0 1508.44,199.65 1508.44,443.67 0,245.47 -675.86,443.63 -1508.44,443.63 z"
         style="fill:none;stroke:#000000;stroke-width:49.2953;stroke-linecap:butt;stroke-linejoin:round;stroke-miterlimit:10;stroke-dasharray:49.2953, 49.2953;stroke-dashoffset:0;stroke-opacity:1"
         id="path92" /><path
         d="m 2825.47,5400.82 1.48,-763.09 -1.48,-7.38 -7.38,-2.97 -5.9,2.97 -2.97,7.38 -2.97,763.09 2.97,7.38 7.38,2.97 5.94,-2.97 z m 66.56,-739.41 -73.94,-147.89 -73.95,147.89"
         style="fill:#000000;fill-opacity:1;fill-rule:nonzero;stroke:none"
         id="path94" /><path
         d="m 1898.24,5400.82 1.49,-763.09 -2.97,-7.38 -5.9,-2.97 -7.42,2.97 -2.93,7.38 v 763.09 l 2.93,7.38 5.94,2.97 5.89,-2.97 z m 66.56,-739.41 -73.94,-147.89 -73.95,147.89"
         style="fill:#000000;fill-opacity:1;fill-rule:nonzero;stroke:none"
         id="path96" /><path
         d="m 3752.73,5400.82 1.49,-763.09 -2.97,-7.38 -5.9,-2.97 -7.42,2.97 -1.48,7.38 -1.45,763.09 2.93,7.38 5.94,2.97 7.38,-2.97 z m 66.53,-739.41 -73.91,-147.89 -73.94,147.89"
         style="fill:#000000;fill-opacity:1;fill-rule:nonzero;stroke:none"
         id="path98" /><path
         d="m 5018.36,3897.7 -396.95,-1.49 -6.88,-2.97 -3.48,-5.9 3.48,-7.38 6.88,-2.97 396.95,1.49 6.91,2.97 3.44,5.89 -3.44,7.39 z m -367.58,63.59 -172.58,-73.95 172.58,-73.94"
         style="fill:#000000;fill-opacity:1;fill-rule:nonzero;stroke:none"
         id="path100" /><path
         d="m 900.512,3346.09 340.148,-1.48 5.9,-2.97 2.97,-5.94 -2.97,-7.38 -5.9,-2.97 -340.148,1.49 -5.903,2.96 -2.968,5.9 2.968,7.42 z m 314.998,63.56 147.89,-73.95 -147.89,-73.9"
         style="fill:#000000;fill-opacity:1;fill-rule:nonzero;stroke:none"
         id="path102" /><path
         d="M 3204.26,3655.98 2900,3401.02 l -3.4,-6.68 1.13,-6.76 7.39,-3.48 7.18,2.15 304.22,254.92 3.44,6.68 -1.13,6.76 -7.38,3.48 z m -323.32,-186.18 -85.39,-167.18 179.96,53.47"
         style="fill:#000000;fill-opacity:1;fill-rule:nonzero;stroke:none"
         id="path104" /><g
         id="g106"
         transform="scale(10)"><text
           xml:space="preserve"
           transform="matrix(1,0,0,-1,206.213,557.489)"
           style="font-variant:normal;font-weight:normal;font-size:23.5854px;font-family:'Times New Roman';-inkscape-font-specification:TimesNewRomanPSMT;writing-mode:lr-tb;fill:#191919;fill-opacity:1;fill-rule:nonzero;stroke:none"
           id="text130"><tspan
             x="0"
             sodipodi:role="line"
             id="tspan128"
             y="0" /></text></g><text
         xml:space="preserve"
         transform="scale(1,-1)"
         style="font-variant:normal;font-weight:normal;font-size:240px;font-family:'Times New Roman';-inkscape-font-specification:TimesNewRomanPSMT;writing-mode:lr-tb;fill:#191919;fill-opacity:1;fill-rule:nonzero;stroke:none;stroke-width:10"
         id="text74-7"
         x="2023.3887"
         y="-5499.98"><tspan
           sodipodi:role="line"
           id="tspan72-1"
           x="2023.3887"
           y="-5499.98"
           style="font-style:normal;font-variant:normal;font-weight:normal;font-stretch:normal;font-size:240px;font-family:'Times New Roman';-inkscape-font-specification:'Times New Roman, ';stroke-width:10">Precipitación I(t)</tspan></text><text
         xml:space="preserve"
         transform="scale(1,-1)"
         style="font-variant:normal;font-weight:normal;font-size:240px;font-family:'Times New Roman';-inkscape-font-specification:TimesNewRomanPSMT;writing-mode:lr-tb;fill:#191919;fill-opacity:1;fill-rule:nonzero;stroke:none;stroke-width:10"
         id="text74-7-9"
         x="5022.5879"
         y="-2349.98"><tspan
           sodipodi:role="line"
           id="tspan72-1-0"
           x="5022.5879"
           y="-2349.98"
           style="font-style:normal;font-variant:normal;font-weight:normal;font-stretch:normal;font-size:240px;font-family:'Times New Roman';-inkscape-font-specification:'Times New Roman, ';stroke-width:10">Caudal Q(t)</tspan></text><text
         xml:space="preserve"
         transform="scale(1,-1)"
         style="font-variant:normal;font-weight:normal;font-size:240px;font-family:'Times New Roman';-inkscape-font-specification:TimesNewRomanPSMT;writing-mode:lr-tb;fill:#191919;fill-opacity:1;fill-rule:nonzero;stroke:none;stroke-width:10"
         id="text74-7-9-8"
         x="5411.0449"
         y="-4109.1987"><tspan
           sodipodi:role="line"
           id="tspan72-1-0-0"
           x="5411.0449"
           y="-4109.1987"
           style="font-style:normal;font-variant:normal;font-weight:normal;font-stretch:normal;font-size:240px;font-family:'Times New Roman';-inkscape-font-specification:'Times New Roman, ';text-align:center;text-anchor:middle;stroke-width:10">Frontera</tspan><tspan
           sodipodi:role="line"
           x="5411.0449"
           y="-3803.2686"
           style="font-style:normal;font-variant:normal;font-weight:normal;font-stretch:normal;font-size:240px;font-family:'Times New Roman';-inkscape-font-specification:'Times New Roman, ';text-align:center;text-anchor:middle;stroke-width:10"
           id="tspan1">del</tspan><tspan
           sodipodi:role="line"
           x="5411.0449"
           y="-3497.3381"
           style="font-style:normal;font-variant:normal;font-weight:normal;font-stretch:normal;font-size:240px;font-family:'Times New Roman';-inkscape-font-specification:'Times New Roman, ';text-align:center;text-anchor:middle;stroke-width:10"
           id="tspan3">Sistema</tspan></text><text
         xml:space="preserve"
         transform="scale(1,-1)"
         style="font-variant:normal;font-weight:normal;font-size:240px;font-family:'Times New Roman';-inkscape-font-specification:TimesNewRomanPSMT;writing-mode:lr-tb;fill:#191919;fill-opacity:1;fill-rule:nonzero;stroke:none;stroke-width:10"
         id="text74-7-9-8-4"
         x="3691.6602"
         y="-3868.2417"><tspan
           sodipodi:role="line"
           id="tspan72-1-0-0-1"
           x="3691.6602"
           y="-3868.2417"
           style="font-style:normal;font-variant:normal;font-weight:normal;font-stretch:normal;font-size:240px;font-family:'Times New Roman';-inkscape-font-specification:'Times New Roman, ';text-align:center;text-anchor:middle;stroke-width:10">Superficie</tspan><tspan
           sodipodi:role="line"
           x="3691.6602"
           y="-3562.3115"
           style="font-style:normal;font-variant:normal;font-weight:normal;font-stretch:normal;font-size:240px;font-family:'Times New Roman';-inkscape-font-specification:'Times New Roman, ';text-align:center;text-anchor:middle;stroke-width:10"
           id="tspan1-2">de la</tspan><tspan
           sodipodi:role="line"
           x="3691.6602"
           y="-3256.3811"
           style="font-style:normal;font-variant:normal;font-weight:normal;font-stretch:normal;font-size:240px;font-family:'Times New Roman';-inkscape-font-specification:'Times New Roman, ';text-align:center;text-anchor:middle;stroke-width:10"
           id="tspan3-2">Cuenca</tspan></text><text
         xml:space="preserve"
         transform="scale(1,-1)"
         style="font-variant:normal;font-weight:normal;font-size:240px;font-family:'Times New Roman';-inkscape-font-specification:TimesNewRomanPSMT;writing-mode:lr-tb;fill:#191919;fill-opacity:1;fill-rule:nonzero;stroke:none;stroke-width:10"
         id="text74-7-9-8-4-0"
         x="576.93353"
         y="-3583.2222"><tspan
           sodipodi:role="line"
           id="tspan72-1-0-0-1-6"
           x="576.93353"
           y="-3583.2222"
           style="font-style:normal;font-variant:normal;font-weight:normal;font-stretch:normal;font-size:240px;font-family:'Times New Roman';-inkscape-font-specification:'Times New Roman, ';text-align:center;text-anchor:middle;stroke-width:10">Divisoria</tspan><tspan
           sodipodi:role="line"
           x="576.93353"
           y="-3277.292"
           style="font-style:normal;font-variant:normal;font-weight:normal;font-stretch:normal;font-size:240px;font-family:'Times New Roman';-inkscape-font-specification:'Times New Roman, ';text-align:center;text-anchor:middle;stroke-width:10"
           id="tspan1-2-7">de</tspan><tspan
           sodipodi:role="line"
           x="576.93353"
           y="-2971.3616"
           style="font-style:normal;font-variant:normal;font-weight:normal;font-stretch:normal;font-size:240px;font-family:'Times New Roman';-inkscape-font-specification:'Times New Roman, ';text-align:center;text-anchor:middle;stroke-width:10"
           id="tspan3-2-7">Aguas</tspan></text></g></g></g></g></g></g>
</g></g></g></svg>
