<?xml version="1.0" encoding="UTF-8" standalone="no"?>
<svg
   xmlns:dc="http://purl.org/dc/elements/1.1/"
   xmlns:cc="http://creativecommons.org/ns#"
   xmlns:rdf="http://www.w3.org/1999/02/22-rdf-syntax-ns#"
   xmlns:svg="http://www.w3.org/2000/svg"
   xmlns="http://www.w3.org/2000/svg"
   xmlns:sodipodi="http://sodipodi.sourceforge.net/DTD/sodipodi-0.dtd"
   xmlns:inkscape="http://www.inkscape.org/namespaces/inkscape"
   version="1.1"
   id="svg10"
   xml:space="preserve"
   width="774.01575"
   height="828.98468"
   viewBox="0 0 774.01575 828.98468"
   sodipodi:docname="cuencahietogramahidrograma.svg"
   inkscape:version="1.0.2-2 (e86c870879, 2021-01-15)"><metadata
     id="metadata16"><rdf:RDF><cc:Work
         rdf:about=""><dc:format>image/svg+xml</dc:format><dc:type
           rdf:resource="http://purl.org/dc/dcmitype/StillImage" /><dc:title></dc:title></cc:Work></rdf:RDF></metadata><defs
     id="defs14"><clipPath
       clipPathUnits="userSpaceOnUse"
       id="clipPath1630"><path
         d="M 464.663,674.566 H 146.868 V 429.949 h 317.795 z"
         id="path1628"
         inkscape:connector-curvature="0" /></clipPath><clipPath
       clipPathUnits="userSpaceOnUse"
       id="clipPath1638"><path
         d="M 87.7,54.2 H 524.3 V 737.8 H 87.7 Z"
         id="path1636"
         inkscape:connector-curvature="0" /></clipPath><clipPath
       clipPathUnits="userSpaceOnUse"
       id="clipPath2746"><path
         d="m 134.979,375.841 h 342 v -258.96 h -342 z"
         id="path2744"
         inkscape:connector-curvature="0" /></clipPath><clipPath
       clipPathUnits="userSpaceOnUse"
       id="clipPath2968"><path
         d="M 0,-8 H 148.63301 V 0.800049 H 0 Z"
         id="path2966"
         inkscape:connector-curvature="0" /></clipPath></defs><sodipodi:namedview
     pagecolor="#ffffff"
     bordercolor="#666666"
     borderopacity="1"
     objecttolerance="10"
     gridtolerance="10"
     guidetolerance="10"
     inkscape:pageopacity="0"
     inkscape:pageshadow="2"
     inkscape:window-width="1920"
     inkscape:window-height="1057"
     id="namedview12"
     showgrid="false"
     inkscape:zoom="1.0458577"
     inkscape:cx="387.00787"
     inkscape:cy="414.49234"
     inkscape:window-x="-8"
     inkscape:window-y="-8"
     inkscape:window-maximized="1"
     inkscape:current-layer="g598"
     showguides="false"
     inkscape:document-rotation="0"
     fit-margin-top="0"
     fit-margin-left="0"
     fit-margin-right="0"
     fit-margin-bottom="0" /><g
     id="g18"
     inkscape:groupmode="layer"
     inkscape:label="hydrology a science natural"
     transform="matrix(1.3333333,0,0,-1.3333333,-1120.9893,1001.8329)"><g
       id="g5158"
       transform="matrix(1.0861311,0,0,1.0861311,-28.631365,-40.850403)"><g
         id="g5342"
         transform="matrix(0.92242996,0,0,0.92242996,7.4342053,49.118874)">












<g
   id="g266"
   transform="translate(37.429647)"><g
     transform="matrix(2.7390466,0,0,-2.7238756,905.34289,242.14259)"
     id="g2866" /><g
     id="g453"
     transform="matrix(0.95761344,0,0,0.95761344,26.430728,5.0826413)"><g
       id="g598"
       transform="translate(23.451825,-3.12691)"><g
   id="g267"><g
     transform="matrix(2.7314611,0,0,2.7314611,886.44281,582.41837)"
     id="g2752"><path
       inkscape:connector-curvature="0"
       id="path2754"
       style="fill:#231f20;fill-opacity:1;fill-rule:nonzero;stroke:none"
       d="M 0,0 2.979,-8.447 5.921,0 H 0" /></g><g
     transform="matrix(2.7390466,0,0,-2.7238756,886.46627,582.41455)"
     id="g2756"><path
       inkscape:connector-curvature="0"
       id="path2758"
       style="fill:none;stroke:#231f20;stroke-width:0.3;stroke-linecap:butt;stroke-linejoin:miter;stroke-miterlimit:4;stroke-dasharray:none;stroke-opacity:1"
       d="M 0,0 2.971,8.47 5.905,0 H 0" /></g><g
     transform="matrix(2.7314611,0,0,2.7314611,1259.6018,763.73825)"
     id="g2760"><path
       inkscape:connector-curvature="0"
       id="path2762"
       style="fill:#231f20;fill-opacity:1;fill-rule:nonzero;stroke:none"
       d="M 0,0 7.569,-2.798 0,-5.595 V 0" /></g><g
     transform="matrix(2.7390466,0,0,-2.7238756,1259.6399,763.73478)"
     id="g2764"><path
       inkscape:connector-curvature="0"
       id="path2766"
       style="fill:none;stroke:#231f20;stroke-width:0.582;stroke-linecap:butt;stroke-linejoin:miter;stroke-miterlimit:4;stroke-dasharray:none;stroke-opacity:1"
       d="M 0,0 7.548,2.805 0,5.611 V 0" /></g><path
     inkscape:connector-curvature="0"
     id="path2768"
     style="fill:#57b2ed;fill-opacity:1;fill-rule:nonzero;stroke:none;stroke-width:2.73146"
     d="m 942.4241,698.3498 h 23.49057 v 57.55189 H 942.4241 Z" /><g
     style="fill:#57b2ed;fill-opacity:1"
     transform="matrix(2.7390466,0,0,-2.7238756,942.44964,755.89816)"
     id="g2770"><path
       inkscape:connector-curvature="0"
       id="path2772"
       style="fill:#57b2ed;fill-opacity:1;stroke:#231f20;stroke-width:0.582;stroke-linecap:butt;stroke-linejoin:miter;stroke-miterlimit:4;stroke-dasharray:none;stroke-opacity:1"
       d="M 0,0 H 8.577 V 21.129 H 0 V 0" /></g><path
     inkscape:connector-curvature="0"
     id="path2774"
     style="fill:#57b2ed;fill-opacity:1;fill-rule:nonzero;stroke:none;stroke-width:2.73146"
     d="m 965.61967,646.74977 h 23.49057 v 109.15192 h -23.49057 z" /><g
     style="fill:#57b2ed;fill-opacity:1"
     transform="matrix(2.7390466,0,0,-2.7238756,965.64663,755.89816)"
     id="g2776"><path
       inkscape:connector-curvature="0"
       id="path2778"
       style="fill:#57b2ed;fill-opacity:1;stroke:#231f20;stroke-width:0.582;stroke-linecap:butt;stroke-linejoin:miter;stroke-miterlimit:4;stroke-dasharray:none;stroke-opacity:1"
       d="M 0,0 H 8.576 V 40.072 H 0 V 0" /></g><path
     inkscape:connector-curvature="0"
     id="path2780"
     style="fill:#57b2ed;fill-opacity:1;fill-rule:nonzero;stroke:none;stroke-width:2.73146"
     d="m 989.11024,606.66831 h 23.48826 v 149.23338 h -23.48826 z" /><g
     style="fill:#57b2ed;fill-opacity:1"
     transform="matrix(2.7390466,0,0,-2.7238756,989.13668,755.89816)"
     id="g2782"><path
       inkscape:connector-curvature="0"
       id="path2784"
       style="fill:#57b2ed;fill-opacity:1;stroke:#231f20;stroke-width:0.582;stroke-linecap:butt;stroke-linejoin:miter;stroke-miterlimit:4;stroke-dasharray:none;stroke-opacity:1"
       d="M 0,0 H 8.575 V 54.787 H 0 V 0" /></g><path
     inkscape:connector-curvature="0"
     id="path2786"
     style="fill:#57b2ed;fill-opacity:1;fill-rule:nonzero;stroke:none;stroke-width:2.73146"
     d="m 1012.5958,559.88111 h 23.4878 v 196.02058 h -23.4878 z" /><g
     style="fill:#57b2ed;fill-opacity:1"
     transform="matrix(2.7390466,0,0,-2.7238756,1012.6244,755.89816)"
     id="g2788"><path
       inkscape:connector-curvature="0"
       id="path2790"
       style="fill:#57b2ed;fill-opacity:1;stroke:#231f20;stroke-width:0.582;stroke-linecap:butt;stroke-linejoin:miter;stroke-miterlimit:4;stroke-dasharray:none;stroke-opacity:1"
       d="M 0,0 H 8.575 V 71.964 H 0 V 0" /></g><path
     inkscape:connector-curvature="0"
     id="path2792"
     style="fill:#57b2ed;fill-opacity:1;fill-rule:nonzero;stroke:none;stroke-width:2.73146"
     d="m 1199.2283,741.14087 h 23.4906 v 14.03152 h -23.4906 z" /><g
     style="fill:#57b2ed;fill-opacity:1"
     transform="matrix(2.7390466,0,0,-2.7238756,1199.2631,755.16821)"
     id="g2794"><path
       inkscape:connector-curvature="0"
       id="path2796"
       style="fill:#57b2ed;fill-opacity:1;stroke:#231f20;stroke-width:0.582;stroke-linecap:butt;stroke-linejoin:miter;stroke-miterlimit:4;stroke-dasharray:none;stroke-opacity:1"
       d="M 0,0 H 8.577 V 5.152 H 0 V 0" /></g><path
     inkscape:connector-curvature="0"
     id="path2798"
     style="fill:#57b2ed;fill-opacity:1;fill-rule:nonzero;stroke:none;stroke-width:2.73146"
     d="m 1059.23,669.76779 h 23.4878 v 86.13663 H 1059.23 Z" /><g
     style="fill:#57b2ed;fill-opacity:1"
     transform="matrix(2.7390466,0,0,-2.7238756,1059.2595,755.89816)"
     id="g2800"><path
       inkscape:connector-curvature="0"
       id="path2802"
       style="fill:#57b2ed;fill-opacity:1;stroke:#231f20;stroke-width:0.582;stroke-linecap:butt;stroke-linejoin:miter;stroke-miterlimit:4;stroke-dasharray:none;stroke-opacity:1"
       d="M 0,0 H 8.576 V 31.623 H 0 V 0" /></g><path
     inkscape:connector-curvature="0"
     id="path2804"
     style="fill:#57b2ed;fill-opacity:1;fill-rule:nonzero;stroke:none;stroke-width:2.73146"
     d="m 1082.7178,693.73636 h 23.4906 v 62.16806 h -23.4906 z" /><g
     style="fill:#57b2ed;fill-opacity:1"
     transform="matrix(2.7390466,0,0,-2.7238756,1082.7495,755.89816)"
     id="g2806"><path
       inkscape:connector-curvature="0"
       id="path2808"
       style="fill:#57b2ed;fill-opacity:1;stroke:#231f20;stroke-width:0.582;stroke-linecap:butt;stroke-linejoin:miter;stroke-miterlimit:4;stroke-dasharray:none;stroke-opacity:1"
       d="M 0,0 H 8.577 V 22.823 H 0 V 0" /></g><path
     inkscape:connector-curvature="0"
     id="path2810"
     style="fill:#57b2ed;fill-opacity:1;fill-rule:nonzero;stroke:none;stroke-width:2.73146"
     d="m 1105.6949,720.93899 h 23.4851 v 34.9627 h -23.4851 z" /><g
     style="fill:#57b2ed;fill-opacity:1"
     transform="matrix(2.7390466,0,0,-2.7238756,1105.7274,755.89816)"
     id="g2812"><path
       inkscape:connector-curvature="0"
       id="path2814"
       style="fill:#57b2ed;fill-opacity:1;stroke:#231f20;stroke-width:0.582;stroke-linecap:butt;stroke-linejoin:miter;stroke-miterlimit:4;stroke-dasharray:none;stroke-opacity:1"
       d="M 0,0 H 8.574 V 12.836 H 0 V 0" /></g><path
     inkscape:connector-curvature="0"
     id="path2816"
     style="fill:#57b2ed;fill-opacity:1;fill-rule:nonzero;stroke:none;stroke-width:2.73146"
     d="m 1128.9642,675.35363 h 23.4824 v 80.55079 h -23.4824 z" /><g
     style="fill:#57b2ed;fill-opacity:1"
     transform="matrix(2.7390466,0,0,-2.7238756,1128.9983,755.89816)"
     id="g2818"><path
       inkscape:connector-curvature="0"
       id="path2820"
       style="fill:#57b2ed;fill-opacity:1;stroke:#231f20;stroke-width:0.582;stroke-linecap:butt;stroke-linejoin:miter;stroke-miterlimit:4;stroke-dasharray:none;stroke-opacity:1"
       d="M 0,0 H 8.573 V 29.572 H 0 V 0" /></g><path
     inkscape:connector-curvature="0"
     id="path2822"
     style="fill:#57b2ed;fill-opacity:1;fill-rule:nonzero;stroke:none;stroke-width:2.73146"
     d="m 1152.4466,715.70277 h 23.4905 v 40.20165 h -23.4905 z" /><g
     style="fill:#57b2ed;fill-opacity:1"
     transform="matrix(2.7390466,0,0,-2.7238756,1152.4829,755.89816)"
     id="g2824"><path
       inkscape:connector-curvature="0"
       id="path2826"
       style="fill:#57b2ed;fill-opacity:1;stroke:#231f20;stroke-width:0.582;stroke-linecap:butt;stroke-linejoin:miter;stroke-miterlimit:4;stroke-dasharray:none;stroke-opacity:1"
       d="M 0,0 H 8.576 V 14.759 H 0 V 0" /></g><path
     inkscape:connector-curvature="0"
     id="path2828"
     style="fill:#57b2ed;fill-opacity:1;fill-rule:nonzero;stroke:none;stroke-width:2.73146"
     d="m 1035.7039,626.24469 h 23.4879 v 129.65973 h -23.4879 z" /><g
     style="fill:#57b2ed;fill-opacity:1"
     transform="matrix(2.7390466,0,0,-2.7238756,1035.7338,755.89816)"
     id="g2830"><path
       inkscape:connector-curvature="0"
       id="path2832"
       style="fill:#57b2ed;fill-opacity:1;stroke:#231f20;stroke-width:0.582;stroke-linecap:butt;stroke-linejoin:miter;stroke-miterlimit:4;stroke-dasharray:none;stroke-opacity:1"
       d="M 0,0 H 8.575 V 47.601 H 0 V 0" /></g><path
     inkscape:connector-curvature="0"
     id="path2834"
     style="fill:#57b2ed;fill-opacity:1;fill-rule:nonzero;stroke:none;stroke-width:2.73146"
     d="m 1175.4946,729.666 h 23.4879 v 26.23569 h -23.4879 z" /><g
     style="fill:#57b2ed;fill-opacity:1"
     transform="matrix(2.7390466,0,0,-2.7238756,1175.5293,755.89816)"
     id="g2836"><path
       inkscape:connector-curvature="0"
       id="path2838"
       style="fill:#57b2ed;fill-opacity:1;stroke:#231f20;stroke-width:0.582;stroke-linecap:butt;stroke-linejoin:miter;stroke-miterlimit:4;stroke-dasharray:none;stroke-opacity:1"
       d="M 0,0 H 8.575 V 9.632 H 0 V 0" /></g><path
     inkscape:connector-curvature="0"
     id="path2840"
     style="fill:#57b2ed;fill-opacity:1;fill-rule:nonzero;stroke:none;stroke-width:2.73146"
     d="m 918.19331,724.79581 h 23.48784 v 31.10861 h -23.48784 z" /><g
     style="fill:#57b2ed;fill-opacity:1"
     transform="matrix(2.7390466,0,0,-2.7238756,918.21729,755.89816)"
     id="g2842"><path
       inkscape:connector-curvature="0"
       id="path2844"
       style="fill:#57b2ed;fill-opacity:1;stroke:#231f20;stroke-width:0.582;stroke-linecap:butt;stroke-linejoin:miter;stroke-miterlimit:4;stroke-dasharray:none;stroke-opacity:1"
       d="M 0,0 H 8.575 V 11.42 H 0 V 0" /></g><path
     inkscape:connector-curvature="0"
     id="path2846"
     style="fill:#57b2ed;fill-opacity:1;fill-rule:nonzero;stroke:none;stroke-width:2.73146"
     d="m 1222.2791,745.35005 h 23.4878 v 10.55437 h -23.4878 z" /><g
     style="fill:#57b2ed;fill-opacity:1"
     transform="matrix(2.7390466,0,0,-2.7238756,1222.3177,755.89816)"
     id="g2848"><path
       inkscape:connector-curvature="0"
       id="path2850"
       style="fill:#57b2ed;fill-opacity:1;stroke:#231f20;stroke-width:0.582;stroke-linecap:butt;stroke-linejoin:miter;stroke-miterlimit:4;stroke-dasharray:none;stroke-opacity:1"
       d="M 0,0 H 8.575 V 3.874 H 0 V 0" /></g><text
     y="-752.3985"
     x="1288.371"
     id="text2854"
     style="font-variant:normal;font-weight:normal;font-size:25.4493px;font-family:'Times New Roman';-inkscape-font-specification:TimesNewRomanPSMT;writing-mode:lr-tb;fill:#231f20;fill-opacity:1;fill-rule:nonzero;stroke:none;stroke-width:2.72395"
     transform="scale(1.0027568,-0.99725078)"><tspan
       style="stroke-width:2.72395"
       id="tspan2852"
       sodipodi:role="line"
       x="1288.371"
       y="-752.3985">tiempo [h]</tspan></text><text
     y="856.69354"
     x="618.82617"
     id="text2860"
     style="font-variant:normal;font-weight:normal;font-size:25.4493px;font-family:'Times New Roman';-inkscape-font-specification:TimesNewRomanPSMT;writing-mode:lr-tb;fill:#231f20;fill-opacity:1;fill-rule:nonzero;stroke:none;stroke-width:2.72395"
     transform="matrix(0,0.99725078,1.0027568,0,0,0)"><tspan
       style="stroke-width:2.72395"
       id="tspan2858"
       sodipodi:role="line"
       x="621.2948 629.76941 649.56891 669.36853 675.7309 682.80579 689.16809 701.89282">[mm / h]</tspan></text><g
     transform="matrix(2.7314611,0,0,2.7314611,916.2649,242.14393)"
     id="g2862"><path
       inkscape:connector-curvature="0"
       id="path2864"
       style="fill:#bddcf9;fill-opacity:1;fill-rule:nonzero;stroke:none"
       d="M 0,0 C 5.844,1.769 12.042,2.022 19.21,13.823 28.241,28.692 34.004,47.751 38.305,70 43.041,94.508 47.056,95.319 47.056,95.319 52.067,102.341 59.785,81.868 61.377,74.748 62.951,67.701 69.679,48.812 76.748,38.41 95.804,10.36 130.612,0.022 130.612,0.022" /></g><path
     inkscape:connector-curvature="0"
     id="path2868"
     style="fill:none;stroke:#231f20;stroke-width:1.5897;stroke-linecap:butt;stroke-linejoin:miter;stroke-miterlimit:4;stroke-dasharray:none;stroke-opacity:1"
     d="m 916.28708,242.14259 c 15.96316,4.83216 32.89594,5.52402 52.47465,37.75836 24.66785,40.61026 40.40937,92.6717 52.15717,153.44136 10.655,55.13606 20.6832,65.18657 22.9418,68.12641 l 0.3291,0.42838 c 13.6897,19.18427 35.405,-36.13522 39.7546,-55.58641 4.2975,-19.24691 22.6793,-70.84256 41.9868,-99.25258 52.0501,-76.61718 147.1306,-104.85559 147.1306,-104.85559 m 18.9049,-59.119 H 895.35802 v 337.82867"
     sodipodi:nodetypes="cccsccccccc" /><g
     transform="matrix(2.7314611,0,0,2.7314611,1278.2467,175.10568)"
     id="g2870"><path
       inkscape:connector-curvature="0"
       id="path2872"
       style="fill:#231f20;fill-opacity:1;fill-rule:nonzero;stroke:none"
       d="M 0,0 8.493,2.963 0,5.888 V 0" /></g><g
     transform="matrix(2.7390466,0,0,-2.7238756,1278.2854,175.10254)"
     id="g2874"><path
       inkscape:connector-curvature="0"
       id="path2876"
       style="fill:none;stroke:#231f20;stroke-width:0.3;stroke-linecap:butt;stroke-linejoin:miter;stroke-miterlimit:4;stroke-dasharray:none;stroke-opacity:1"
       d="M 0,0 8.469,-2.971 0,-5.905 V 0" /></g><g
     transform="matrix(2.7314611,0,0,2.7314611,887.30595,507.31141)"
     id="g2878"><path
       inkscape:connector-curvature="0"
       id="path2880"
       style="fill:#231f20;fill-opacity:1;fill-rule:nonzero;stroke:none"
       d="M 0,0 2.812,7.527 5.627,0 H 0" /></g><g
     transform="matrix(2.7390466,0,0,-2.7238756,887.3299,507.30641)"
     id="g2882"><path
       inkscape:connector-curvature="0"
       id="path2884"
       style="fill:none;stroke:#231f20;stroke-width:0.582;stroke-linecap:butt;stroke-linejoin:miter;stroke-miterlimit:4;stroke-dasharray:none;stroke-opacity:1"
       d="M 0,0 2.805,-7.548 5.612,0 H 0" /></g><text
     y="829.24005"
     x="311"
     id="text2890"
     style="font-variant:normal;font-weight:normal;font-size:25.4493px;font-family:'Times New Roman';-inkscape-font-specification:TimesNewRomanPSMT;writing-mode:lr-tb;fill:#231f20;fill-opacity:1;fill-rule:nonzero;stroke:none;stroke-width:2.72395"
     transform="matrix(0,0.99725078,1.0027568,0,0,0)"><tspan
       style="stroke-width:2.72395"
       id="tspan2886"
       sodipodi:role="line"
       x="311"
       y="829.24005">Descarga</tspan><tspan
       style="stroke-width:2.72395"
       id="tspan2888"
       sodipodi:role="line"
       y="859.77924"
       x="321.79053 328.15286 336.62747"> [m</tspan></text><text
     y="852.07233"
     x="356.41174"
     id="text2894"
     style="font-variant:normal;font-weight:normal;font-size:19.087px;font-family:'Times New Roman';-inkscape-font-specification:TimesNewRomanPSMT;writing-mode:lr-tb;fill:#231f20;fill-opacity:1;fill-rule:nonzero;stroke:none;stroke-width:2.72395"
     transform="matrix(0,0.99724899,1.0027586,0,0,0)"><tspan
       style="stroke-width:2.72395"
       id="tspan2892"
       y="852.07233"
       x="356.41174">3</tspan></text><text
     y="859.77991"
     x="365.95456"
     id="text2898"
     style="font-variant:normal;font-weight:normal;font-size:25.4493px;font-family:'Times New Roman';-inkscape-font-specification:TimesNewRomanPSMT;writing-mode:lr-tb;fill:#231f20;fill-opacity:1;fill-rule:nonzero;stroke:none;stroke-width:2.72395"
     transform="matrix(0,0.99725078,1.0027568,0,0,0)"><tspan
       style="stroke-width:2.72395"
       id="tspan2896"
       sodipodi:role="line"
       y="859.77991"
       x="365.95456 373.02948 382.92926">/s]</tspan></text><g
     transform="matrix(2.7390466,0,0,-2.7238756,1051.3445,521.94997)"
     id="g2900"><path
       inkscape:connector-curvature="0"
       id="path2902"
       style="fill:none;stroke:#231f20;stroke-width:1.165;stroke-linecap:butt;stroke-linejoin:miter;stroke-miterlimit:4;stroke-dasharray:1.91, 1.91;stroke-dashoffset:0;stroke-opacity:1"
       d="M 0,0 V 122.977 M -48.794,81.721 v 42.05" /></g><g
     transform="matrix(2.7390466,0,0,-2.7238756,939.04856,229.0026)"
     id="g2904"><path
       inkscape:connector-curvature="0"
       id="path2906"
       style="fill:none;stroke:#231f20;stroke-width:0.582;stroke-linecap:butt;stroke-linejoin:miter;stroke-miterlimit:4;stroke-dasharray:none;stroke-opacity:1"
       d="M 0,0 H 31.492" /></g><g
     transform="matrix(2.7314611,0,0,2.7314611,1032.5546,232.14129)"
     id="g2908"><path
       inkscape:connector-curvature="0"
       id="path2910"
       style="fill:#231f20;fill-opacity:1;fill-rule:nonzero;stroke:none"
       d="m 0,0 c -1.865,0.561 -3.077,1.077 -4.572,1.674 v -5.657 c 0.535,0.251 2.707,1.114 4.572,1.674 1.995,0.598 3.805,1.008 4.978,1.153 C 3.805,-1.009 1.995,-0.598 0,0" /></g><g
     transform="matrix(2.7314611,0,0,2.7314611,931.74682,225.86439)"
     id="g2912"><path
       inkscape:connector-curvature="0"
       id="path2914"
       style="fill:#231f20;fill-opacity:1;fill-rule:nonzero;stroke:none"
       d="M 0,0 C 1.865,-0.561 3.077,-1.074 4.572,-1.674 V 3.984 C 4.037,3.732 1.865,2.871 0,2.312 -1.995,1.712 -3.803,1.302 -4.976,1.156 -3.803,1.009 -1.995,0.6 0,0" /></g><text
     y="-202.70029"
     x="973.48962"
     id="text2918"
     style="font-style:italic;font-variant:normal;font-size:25.4493px;font-family:'Times New Roman';-inkscape-font-specification:TimesNewRomanPS-ItalicMT;writing-mode:lr-tb;fill:#231f20;fill-opacity:1;fill-rule:nonzero;stroke:none;stroke-width:2.72395"
     transform="scale(1.0027568,-0.99725078)"><tspan
       style="stroke-width:2.72395"
       id="tspan2916"
       y="-202.70029"
       x="973.48962">t</tspan></text><text
     y="-194.99283"
     x="980.55817"
     id="text2922"
     style="font-style:italic;font-variant:normal;font-size:19.087px;font-family:'Times New Roman';-inkscape-font-specification:TimesNewRomanPS-ItalicMT;writing-mode:lr-tb;fill:#231f20;fill-opacity:1;fill-rule:nonzero;stroke:none;stroke-width:2.72395"
     transform="scale(1.0027586,-0.99724899)"><tspan
       style="stroke-width:2.72395"
       id="tspan2920"
       y="-194.99283"
       x="980.55817">m</tspan></text><text
     y="-519.80316"
     x="1100.65"
     id="text2926"
     style="font-style:italic;font-variant:normal;font-size:25.4493px;font-family:'Times New Roman';-inkscape-font-specification:TimesNewRomanPS-ItalicMT;writing-mode:lr-tb;fill:#231f20;fill-opacity:1;fill-rule:nonzero;stroke:none;stroke-width:2.72395"
     transform="scale(1.0027568,-0.99725078)"><tspan
       style="stroke-width:2.72395"
       id="tspan2924"
       y="-519.80316"
       x="1100.65">Q</tspan></text><text
     y="-512.09821"
     x="1119.0269"
     id="text2930"
     style="font-style:italic;font-variant:normal;font-size:19.087px;font-family:'Times New Roman';-inkscape-font-specification:TimesNewRomanPS-ItalicMT;writing-mode:lr-tb;fill:#231f20;fill-opacity:1;fill-rule:nonzero;stroke:none;stroke-width:2.72395"
     transform="scale(1.0027586,-0.99724899)"><tspan
       style="stroke-width:2.72395"
       id="tspan2928"
       sodipodi:role="line"
       y="-512.09821"
       x="1119.0269 1132.8076 1142.3511">max</tspan></text><g
     transform="matrix(2.7390466,0,0,-2.7238756,1056.4199,504.53622)"
     id="g2932"><path
       inkscape:connector-curvature="0"
       id="path2934"
       style="fill:none;stroke:#231f20;stroke-width:1.165;stroke-linecap:butt;stroke-linejoin:miter;stroke-miterlimit:4;stroke-dasharray:4.659, 4.659;stroke-dashoffset:0;stroke-opacity:1"
       d="M 0,0 H 48.753" /></g><text
     y="1081.2336"
     x="292.31705"
     id="text2938"
     style="font-style:italic;font-variant:normal;font-size:25.4493px;font-family:'Times New Roman';-inkscape-font-specification:TimesNewRomanPS-ItalicMT;writing-mode:lr-tb;fill:#231f20;fill-opacity:1;fill-rule:nonzero;stroke:none;stroke-width:2.72395"
     transform="matrix(0,0.99725078,1.0027568,0,0,0)"><tspan
       style="stroke-width:2.72395"
       id="tspan2936"
       y="1081.2336"
       x="292.31705">V</tspan></text><text
     y="1088.9395"
     x="307.86057"
     id="text2942"
     style="font-style:italic;font-variant:normal;font-size:19.087px;font-family:'Times New Roman';-inkscape-font-specification:TimesNewRomanPS-ItalicMT;writing-mode:lr-tb;fill:#231f20;fill-opacity:1;fill-rule:nonzero;stroke:none;stroke-width:2.72395"
     transform="matrix(0,0.99724899,1.0027586,0,0,0)"><tspan
       style="stroke-width:2.72395"
       id="tspan2940"
       sodipodi:role="line"
       y="1088.9395"
       x="307.86057 321.64136 331.18484">max</tspan></text><g
     transform="matrix(2.7390466,0,0,-2.7238756,894.49442,568.80608)"
     id="g2948"><path
       inkscape:connector-curvature="0"
       id="path2950"
       style="fill:none;stroke:#231f20;stroke-width:0.582;stroke-linecap:butt;stroke-linejoin:miter;stroke-miterlimit:4;stroke-dasharray:none;stroke-opacity:1"
       d="M 0,0 V -68.633 H 138.305" /></g><text
     y="-125.21716"
     x="967.39471"
     id="text2958"
     style="font-variant:normal;font-weight:normal;font-size:24.5831px;font-family:'Times New Roman';-inkscape-font-specification:TimesNewRoman;writing-mode:lr-tb;fill:#191919;fill-opacity:1;fill-rule:nonzero;stroke:none;stroke-width:2.73146"
     transform="scale(1,-1)"><tspan
       style="stroke-width:2.73146"
       id="tspan2956"
       sodipodi:role="line"
       x="967.39471"
       y="-125.21716">Hietograma e Hidrograma</tspan></text><text
     style="font-variant:normal;font-weight:normal;font-size:24.5831px;font-family:'Times New Roman';-inkscape-font-specification:TimesNewRoman;writing-mode:lr-tb;fill:#191919;fill-opacity:1;fill-rule:nonzero;stroke:none;stroke-width:2.73146"
     id="text2958-7-3-8"
     x="610.97852"
     y="826.69971"
     transform="matrix(-0.0028477,0.99999595,0.99999595,0.0028477,0,0)"><tspan
       y="826.69971"
       x="610.97852"
       sodipodi:role="line"
       id="tspan2956-6-7-5"
       style="stroke-width:2.73146">Intensidad</tspan></text><text
     y="-178.11172"
     x="1304.1387"
     id="text2854-8"
     style="font-variant:normal;font-weight:normal;font-size:25.4493px;font-family:'Times New Roman';-inkscape-font-specification:TimesNewRomanPSMT;writing-mode:lr-tb;fill:#231f20;fill-opacity:1;fill-rule:nonzero;stroke:none;stroke-width:2.72395"
     transform="scale(1.0027568,-0.99725077)"><tspan
       style="stroke-width:2.72395"
       id="tspan2852-7"
       sodipodi:role="line"
       x="1304.1387"
       y="-178.11172">tiempo [h]</tspan></text></g>














</g></g></g>
</g></g></g></svg>
