<?xml version="1.0" encoding="UTF-8" standalone="no"?>
<!-- Created with Inkscape (http://www.inkscape.org/) -->

<svg
   version="1.1"
   id="svg1"
   width="1086.4777"
   height="447.46591"
   viewBox="0 0 1086.4777 447.46591"
   sodipodi:docname="senamhi_logo.svg"
   inkscape:version="1.3.2 (091e20e, 2023-11-25, custom)"
   xmlns:inkscape="http://www.inkscape.org/namespaces/inkscape"
   xmlns:sodipodi="http://sodipodi.sourceforge.net/DTD/sodipodi-0.dtd"
   xmlns="http://www.w3.org/2000/svg"
   xmlns:svg="http://www.w3.org/2000/svg">
  <defs
     id="defs1" />
  <sodipodi:namedview
     id="namedview1"
     pagecolor="#ffffff"
     bordercolor="#000000"
     borderopacity="0.25"
     inkscape:showpageshadow="2"
     inkscape:pageopacity="0.0"
     inkscape:pagecheckerboard="0"
     inkscape:deskcolor="#d1d1d1"
     showgrid="false"
     inkscape:zoom="0.85646381"
     inkscape:cx="471.70703"
     inkscape:cy="227.09658"
     inkscape:window-width="1920"
     inkscape:window-height="1057"
     inkscape:window-x="1912"
     inkscape:window-y="-8"
     inkscape:window-maximized="1"
     inkscape:current-layer="g1">
    <inkscape:page
       x="0"
       y="0"
       inkscape:label="1"
       id="page1"
       width="1086.4777"
       height="447.46591"
       margin="0"
       bleed="0"
       inkscape:export-filename="senamhi_logo.png"
       inkscape:export-xdpi="96"
       inkscape:export-ydpi="96" />
  </sodipodi:namedview>
  <g
     id="g1"
     inkscape:groupmode="layer"
     inkscape:label="1"
     transform="translate(-374.21901,-154.12212)">
    <g
       id="g98"
       transform="matrix(0.74380789,0,0,0.74380789,374.21894,154.1221)">
      <path
         id="path1"
         d="M 1492.42,50.6602 C 1394.06,146.09 1318.95,244.691 1272.7,339.059 c -60.79,124.101 -69.61,218.363 -33.52,357.191 20.66,79.41 48.94,133.129 113.48,215.391 14.96,19.097 32.07,44.019 38,55.308 10.59,20.321 20.82,49.811 20.82,60.241 0,3.16 -15,16.17 -37.57,32.46 -20.67,14.96 -48.25,35.74 -61.33,46.21 -13.05,10.47 -25.43,19.1 -27.58,19.1 -2.11,0 -20.47,-16.01 -40.78,-35.55 -43.75,-42.14 -84.3,-71.95 -129.81,-95.269 -70.93,-36.411 -107.96,-45.231 -206.988,-49.262 -73.16,-3 -101.211,-6.52 -149.531,-18.859 -41.52,-10.629 -97.231,-34.5 -131.411,-56.45 -47.89,-30.621 -105.429,-85.59 -132.808,-126.679 -8.203,-12.34 -15.863,-22.422 -17.113,-22.422 -1.207,0 -6.758,16.722 -12.297,37.113 -47.461,174.488 -56.332,342.458 -24.571,465.078 19.368,74.61 51.289,130.89 111.868,197.11 68.832,75.27 122.621,112.53 220.632,152.69 65.43,26.84 83.829,37.15 107.848,60.08 18.59,17.77 20.16,20.31 18.711,30.04 -2.422,15.86 -37.34,109.57 -41.449,111.05 -1.992,0.71 -12.071,0.24 -22.5,-1.09 -38.242,-4.88 -112.922,-3.28 -150.582,3.24 -69.297,11.95 -113.36,30.98 -187.848,81.13 -96.101,64.61 -172.543,93.87 -267.152,102.15 -65.547,5.74 -147.1877,-6.64 -204.6877,-31.09 -12.8125,-5.51 -23.871144,-9.49 -24.453175,-8.91 -1.757815,1.76 26.871075,86.53 44.062475,130.2 20.2383,51.52 68.3594,147.97 94.8084,189.92 71.36,113.28 156.281,192.23 242.692,225.55 51.988,20.07 120.898,36.99 180.898,44.41 46.481,5.82 126.211,2.23 177.461,-7.97 22.539,-4.53 49.141,-9.02 59.102,-10.08 21.597,-2.22 20.898,-3.32 30.976,46.37 3.711,18.28 10.192,45.55 14.41,60.63 4.184,15.07 6.801,29.53 5.821,32.11 -0.969,2.57 -9.688,7.89 -19.411,11.83 -22.378,9.1 -75.277,40.82 -101.988,61.17 -42.461,32.31 -89.57,83.21 -117.5,126.8 -13.64,21.29 -27.82,51.05 -46.801,98.24 -66.129,164.38 -181.988,273.09 -331.64,311.17 -37.699,9.61 -41.52,11.14 -36.367,14.77 1.679,1.21 16.597,12.3 33.089,24.57 132.188,98.83 267.418,165.08 390.231,191.25 44.957,9.61 128.476,11.84 167.457,4.57 71.101,-13.4 179.531,-59.77 238.281,-101.99 18.83,-13.52 52.54,-44.34 91.68,-83.56 38.75,-39.02 65.08,-63 70.47,-64.33 7.74,-1.96 12.54,1.56 48.21,35.19 21.75,20.51 39.57,38.79 39.53,40.59 0,1.83 -8.01,13.24 -17.78,25.43 -63.63,79.02 -108.82,172.54 -123,254.37 -6.96,40.28 -4.81,118.05 4.49,162.74 24.49,117.38 11.68,232.11 -36.68,328.67 -23.67,47.07 -65.39,103.4 -92.89,125.12 -9.26,7.42 -11.639,10.82 -8.52,12.54 16.41,9.1 198.4,13.43 269.65,6.32 183.59,-18.12 306.56,-71.09 388.28,-167.07 65.67,-77.18 101.45,-151.91 120.74,-252.38 17.46,-90.66 23.21,-112.85 35.86,-138.51 12.78,-25.94 35.51,-52.43 57.35,-66.88 l 11.48,-7.58 34.45,4.92 c 18.91,2.78 40.16,5.98 47.04,7.27 l 12.69,2.3 -1.09,47.35 c -1.76,78.67 7.65,144.06 30.9,213.4 26.32,78.82 56.36,125.07 131.25,202.18 61.28,63.13 88.28,98.95 115.11,153.21 47.03,94.8 60.35,187.22 42.46,293.67 l -2.07,12.46 15.51,-8.91 c 30.63,-17.5 104.69,-68.24 141.84,-97.14 45.97,-35.83 120.08,-107.19 151.64,-146.14 65.43,-80.9 101.52,-156.09 113.86,-237.3 7.08,-46.68 9.3,-117.35 5,-159.53 -7.5,-73.4 -20.39,-117 -60.27,-203.79 -13.63,-29.57 -27.23,-60.86 -30.23,-69.53 -7.97,-22.97 -9.65,-69.07 -3.36,-90.78 5.12,-17.47 5.15,-17.5 34.14,-33.64 15.94,-8.94 31.64,-16.17 34.88,-16.17 4.34,0 9.49,7.85 19.81,30 45.62,98.36 114.64,183.01 190.19,233.32 63.71,42.34 113.01,59.1 215.94,73.28 40.82,5.63 86.4,16.49 120.74,28.71 35.43,12.62 93.16,43.56 122.77,65.78 58.56,43.95 114.03,114.61 135.9,173.05 6.64,17.81 7.46,18.75 11.76,13.2 8.48,-10.97 44.61,-89.14 65.08,-140.93 30.86,-78.13 49.41,-143.09 62.58,-219.22 9.53,-55.08 10.35,-164.61 1.6,-208.24 -17.62,-87.19 -62.27,-173.05 -120.31,-231.06 -33.72,-33.75 -73.21,-60.66 -126.8,-86.52 -169.3,-81.72 -194.57,-95.98 -252.58,-142.19 -31.05,-24.73 -72.42,-65.9 -100.94,-100.43 l -21.64,-26.13 -43.08,43.63 c -90.86,91.91 -178.32,155.23 -290.82,210.55 -103.44,50.82 -207.39,82.46 -322.66,98.36 -51.41,7.07 -166.02,9.61 -221.64,4.88 -325.63,-27.42 -612.54,-198.13 -792.81,-471.52 -85.2,-129.26 -140.43,-277.23 -162.89,-436.37 -6.72,-48.13 -9.5,-177.58 -4.81,-228.99 37.15,-409.64 304.53,-756.56 691.41,-896.99 162.11,-58.83 355.19,-76.09 527.07,-47.03 167.54,28.32 322.62,95.08 457.97,197.19 83.98,63.4 157.11,137.54 217.26,220.23 10.51,14.49 20.24,26.41 21.53,26.41 6.29,0 61.95,-17.34 93.24,-29.02 159.73,-59.57 291.21,-160.94 360.31,-277.93 32.23,-54.54 48.59,-108.25 56.72,-186.25 8.67,-83.25 25.08,-142.54 56.09,-202.969 46.14,-90.039 126.96,-169.383 218.13,-214.262 11.76,-5.82 21.33,-11.449 21.33,-12.66 0,-1.168 -13.71,-8.117 -30.43,-15.469 -155,-68 -323.44,-105.89 -444.22,-99.921 -121.84,5.98 -205.08,43.281 -293.48,131.41 -45.62,45.551 -69.92,80.043 -116.76,166.011 -16.17,29.571 -35.78,63.68 -43.71,75.86 -19.88,30.67 -63.4,73.52 -90.78,89.38 -25.08,14.53 -52.07,25.94 -61.44,25.94 -6.76,0 -55.2,-33.79 -58.17,-40.59 -0.97,-2.3 5.9,-17.93 15.31,-34.73 69.42,-123.711 99.97,-259.059 82.54,-365.5 -7.38,-44.649 -15.86,-70.82 -40.89,-125.789 -12.78,-28.16 -27.66,-64.84 -32.97,-81.563 -45.51,-143.039 -29.34,-281.168 46.95,-399.9958 2.46,-3.832 3.79,-7.6914 2.93,-8.5117 -2.77,-2.7383 -110.55,16.7187 -157.62,28.5117 -88.71,22.1875 -179.57,56.6368 -244.14,92.4998 -67.11,37.309 -133.01,93.906 -164.1,140.938 -34.65,52.422 -66.37,130.269 -78.36,192.269 -9.26,47.891 -11.01,90.781 -6.72,161.75 5.47,90.473 -0.39,125.473 -28.2,168.871 l -10.31,16.02 -54.03,-0.86 -54.1,-0.82 -2.23,-7.89 c -1.17,-4.34 -5.78,-27.231 -10.19,-50.821 -20.35,-109.461 -65.39,-204.179 -128.24,-269.539 -32.54,-33.898 -52.89,-49.922 -95.63,-75.269 -66.13,-39.219 -99.96,-65.27 -141.48,-108.942 -72.5,-76.179 -114.38,-168.09 -124.3,-272.617 l -3.71,-39.49216 z"
         style="fill:#fdc22a;fill-opacity:1;fill-rule:nonzero;stroke:none"
         transform="matrix(0.13333333,0,0,-0.13333333,0,602.66667)" />
      <path
         id="path2"
         d="m 2030.43,1345.31 c -233.2,16.25 -390.12,74.3 -470,173.95 -60.7,75.78 -98.24,171.21 -110.08,279.92 -3.32,30.31 -3.12,143.98 0.2,147.15 0.9,0.82 89.06,4.49 195.97,8.16 106.88,3.71 213.87,7.58 237.78,8.67 l 43.43,2.04 v -39.54 c 0,-88.16 20.04,-145.27 67.93,-193.55 25.12,-25.35 58.05,-44.26 96.53,-55.51 33.51,-9.84 117.26,-12.38 155.19,-4.69 66.96,13.56 120.74,47.74 155.63,98.87 22.97,33.75 28.63,52.54 28.71,95.59 0.04,35.19 -0.27,37.07 -11.25,60.04 -28.87,60.35 -87.62,94.21 -241.56,139.1 -152.19,44.37 -218.48,68.55 -296.88,108.28 -141.87,71.83 -215.74,152.62 -247.46,270.62 -7.42,27.54 -8.16,35.75 -8.16,91.84 -0.08,52.19 0.97,66.72 6.99,94.8 30.08,140.04 115.55,264.26 237.3,345.08 112.62,74.73 237.15,110.51 417.82,120.04 153.08,8.09 304.76,-7.89 413.04,-43.51 161.1,-52.86 249.96,-148.17 281.84,-302.15 7.5,-36.33 14.22,-127.39 11.13,-151.72 -2.19,-17.27 -2.73,-18.13 -12.34,-19.57 -5.55,-0.82 -91.84,-3.71 -191.76,-6.49 -99.96,-2.69 -200.94,-5.78 -224.49,-6.91 l -42.78,-1.91 -3.67,35.93 c -6.91,67.31 -21.25,103.05 -54.26,135.51 -23.55,23.17 -50.43,37.81 -88.39,48.13 -33.21,8.98 -118.29,9.92 -148.87,1.64 -93.83,-25.39 -152.85,-111.8 -121.88,-178.4 20.98,-44.96 58.48,-64.02 204.03,-103.71 300.7,-81.96 447.46,-150.35 533,-248.48 44.42,-50.9 68.48,-100.04 83.72,-170.98 9.92,-45.93 9.96,-130.43 0.19,-182.42 -25.82,-137.38 -92.93,-259.45 -197.23,-358.67 -122.22,-116.44 -280.93,-181.09 -484.14,-197.38 -46.79,-3.75 -159.53,-3.63 -215.23,0.23 z m 1358.83,450.47 c -163.48,10.35 -252.42,52.77 -319.81,152.74 -72.18,107.1 -83.08,268.39 -29.37,433.63 15.66,48.4 50.35,117.89 78.28,157.19 24.73,34.84 77.23,90.46 111.25,117.96 84.37,68.09 187.54,109.07 308.16,122.27 61.49,6.76 162.93,3.24 230.67,-8.01 171.09,-28.44 275.54,-132.38 298.4,-296.79 4.21,-30.28 4.33,-117.19 0.23,-154.93 -1.72,-15.66 -6.21,-48 -10,-71.91 l -6.91,-43.48 -347.82,-0.04 c -215.31,0 -349.68,-1.17 -352.57,-3.04 -3.79,-2.39 -4.69,-10.2 -4.46,-38.67 0.55,-57.86 13.24,-93.6 44.1,-124.15 27.5,-27.1 60.47,-39.37 105.71,-39.37 55.82,0 107.46,21.05 151.09,61.72 l 26.29,24.41 155.43,-14.92 c 85.47,-8.24 158.59,-15.94 162.54,-17.07 6.87,-2.03 6.17,-3.4 -13.91,-28.98 -28.44,-36.14 -88.08,-95 -122.15,-120.47 -88.51,-66.14 -183.82,-97.11 -329.25,-106.92 -44.34,-2.97 -99.38,-3.47 -135.9,-1.17 z m 344.1,578.05 c 3.59,9.41 1.8,75.58 -2.66,96.64 -14.53,68.44 -64.14,106.99 -137.54,106.83 -77.89,-0.11 -146.28,-46.09 -185.7,-124.76 -15.78,-31.6 -29.88,-72.15 -27.38,-78.71 1.76,-4.49 20.27,-5 176.68,-5 156.33,0 174.88,0.51 176.6,5 z m 1765.27,-576.49 c -41.64,4.34 -77.89,14.14 -110.66,30.04 -55.74,27 -95.63,77.74 -109.22,138.87 -4.06,18.44 -4.96,32.73 -3.67,59.37 4.92,100.08 53.28,189.3 130.27,240.55 53.28,35.51 114.22,56.53 238.6,82.35 185.39,38.59 236.95,50.97 300.82,72.26 58.71,19.65 65.46,22.77 69.02,32.03 1.64,4.46 3.01,21.14 3.01,37.11 -0.08,51.72 -16.37,72.38 -65.16,82.74 -55.59,11.79 -140.9,-1.1 -182.11,-27.46 -18.71,-11.96 -39.76,-35.16 -54.96,-60.55 -6.41,-10.7 -11.91,-19.81 -12.19,-20.24 -1.09,-1.71 -312.93,34.5 -315,36.57 -3.16,3.08 31.37,73.67 49.69,101.68 40.74,62.38 118.24,119.49 196.88,145.19 67.57,22.07 138.86,31.72 250.15,33.99 121.13,2.38 223.2,-5.24 286.68,-21.37 47.46,-12.07 98.75,-41.95 125.63,-73.28 18.08,-21.02 35.74,-60 43.39,-95.63 5.51,-25.27 6.88,-42.3 6.92,-85.31 l 0.08,-53.71 -41.49,-230.7 C 6282.5,2095 6262.07,1976.29 6260,1958.09 c -4.45,-38.09 -2.46,-71.61 6.48,-112.11 3.44,-15.55 6.29,-28.71 6.29,-29.26 0,-0.51 -71.4,-0.63 -158.67,-0.2 l -158.63,0.82 -6.06,18.99 c -3.51,11.21 -6.79,33.87 -8,55.27 -1.64,29.18 -3.01,36.45 -6.92,37.23 -2.69,0.51 -14.02,-6.49 -25.27,-15.47 -27.81,-22.42 -72.38,-51.52 -100.94,-65.94 -82.03,-41.29 -204.26,-61.13 -309.65,-50.08 z m 285.94,196.76 c 28.55,7.54 79.49,33.99 103.36,53.75 46.91,38.83 67.73,80.74 84.92,170.82 7.5,39.38 7.66,48.99 0.94,48.99 -2.81,0 -25.2,-6.25 -49.77,-13.99 -24.57,-7.69 -68.86,-20.58 -98.36,-28.63 -127.77,-34.81 -168.04,-56.72 -191.48,-104.34 -28.52,-57.89 -6.64,-113.59 50.82,-129.49 21.29,-5.86 71.6,-4.37 99.57,2.89 z M 4119.14,1822.89 c 0.86,3.91 37.89,211.88 82.27,462.15 44.45,250.31 81.6,459.69 82.57,465.35 l 1.8,10.23 h 315.47 l -1.6,-7.1 c -2.93,-13.13 -23.79,-133.83 -23.79,-137.66 0,-9.26 12.5,-1.48 43.71,27.23 87.31,80.23 141.02,111.48 224.88,130.54 35.67,8.21 115.82,11.45 151.8,6.17 98.91,-14.49 162.5,-67.92 186.25,-156.64 8.67,-32.14 11.8,-100.66 6.72,-146.91 -1.99,-18.28 -28.48,-172.89 -58.87,-343.59 -30.35,-170.78 -55.19,-311.88 -55.19,-313.64 0,-2.14 -57.93,-3.2 -170.67,-3.2 -93.9,0 -170.62,0.82 -170.62,1.88 0,1.01 21.56,122.26 47.93,269.41 45.04,251.25 47.97,269.96 48.16,308.55 0.24,36.49 -0.55,42.86 -7.03,56.88 -13.87,30.12 -36.37,46.48 -72.62,52.66 -40.86,7.03 -82.3,-4.15 -117.85,-31.88 -38.05,-29.61 -63.83,-75.47 -82.11,-146.09 -3.71,-14.46 -26.21,-135.16 -49.92,-268.09 l -43.13,-241.8 -169.92,-0.82 -169.88,-0.74 z m 2339.92,-3.12 c -0.08,2.14 37.27,214.72 82.97,472.42 l 83.09,468.43 h 157.22 c 147.7,0 157.15,-0.31 157.07,-5.5 -0.07,-3.05 -4.84,-31.14 -10.54,-62.39 -5.71,-31.32 -9.77,-58.71 -8.99,-60.85 2.78,-8.05 11.41,-3.33 36.53,20.03 105.43,98.09 197.54,134.46 329.18,129.85 86.05,-2.97 127.42,-17.42 169.61,-59.34 21.01,-20.9 26.71,-29.18 42.07,-60.9 9.84,-20.19 19.21,-36.75 20.85,-36.75 1.72,0 19.15,13.86 38.79,30.82 93.48,80.7 157.58,112.96 247.15,124.21 42.85,5.43 115.82,2.31 148.24,-6.28 81.53,-21.61 132.66,-71.84 153.79,-151.29 8.21,-30.9 11.37,-109.46 6.14,-154.22 -2.85,-24.85 -106.37,-617.78 -112.58,-645.12 l -1.64,-7.07 h -168.99 c -145.27,0 -169.02,0.59 -169.02,4.57 0,2.5 22.15,128.67 49.22,280.43 44.26,248.24 49.02,278.75 48.05,304.49 -1.37,35.12 -10.63,56.6 -33.68,78.17 -55.74,52.11 -159.1,16.52 -203.9,-70.28 -7.81,-15.08 -17.89,-40.08 -22.42,-55.7 -4.5,-15.51 -27.35,-136.25 -50.79,-268.36 -23.43,-132.11 -44.06,-247.66 -45.89,-256.76 l -3.32,-16.56 h -168.79 c -154.73,0 -168.87,0.43 -168.87,5.2 0,2.85 21.29,124.84 47.27,271.09 50.97,286.48 54.64,310.86 50.66,335.55 -5.04,31.29 -24.26,58.51 -51.37,72.85 -16.87,8.94 -62.54,9.53 -87.26,1.13 -59.96,-20.23 -103.91,-74.76 -124.93,-154.96 -4.33,-16.52 -27.14,-138.83 -50.74,-271.76 -23.55,-132.97 -43.63,-245.66 -44.61,-250.43 l -1.83,-8.67 h -168.79 c -132.81,0 -168.83,0.82 -168.95,3.95 z m 1727.07,7.89 c 1.1,6.48 53.56,301.21 116.41,654.88 l 114.37,643.08 167.31,0.83 c 91.99,0.46 168.2,-0.28 169.33,-1.57 1.22,-1.33 -16.83,-109.02 -40.03,-239.26 -28.91,-162.07 -41.22,-237.92 -39.03,-240.11 4.14,-4.14 11.33,0.31 39.85,24.45 65.35,55.31 132.5,89.65 206.56,105.51 41.13,8.75 140.58,7.89 175.15,-1.64 42.47,-11.72 69.61,-27.07 98.25,-55.74 41.6,-41.61 59.65,-88.29 63.55,-164.46 2.81,-55.74 -2.19,-89.84 -63.05,-431.29 l -54.29,-305 -169.85,-0.82 c -138.47,-0.66 -169.88,0 -169.88,3.36 0,2.31 21.52,124.26 47.81,271.02 41.92,234.1 47.78,271.29 48.17,303.16 0.54,46.02 -5.08,64.3 -26.21,85.43 -31.57,31.53 -89.96,36.96 -140.75,13.01 -55.74,-26.25 -91.17,-78.32 -113.63,-167.03 -4.37,-17.19 -26.48,-135.7 -49.14,-263.36 -22.62,-127.7 -41.91,-235.31 -42.81,-239.22 l -1.64,-7.07 h -338.52 z m 1170.86,-10.36 c 0,1.96 163.79,923.52 166.1,934.69 l 1.83,8.63 h 168.87 c 108.98,0 168.79,-1.09 168.79,-3.08 0,-3.48 -163.36,-923.4 -165.94,-934.65 l -1.64,-7.07 h -169.02 c -92.97,0 -168.99,0.66 -168.99,1.48 z m 191.84,1072.11 c -0.71,1.29 8.12,54.97 19.57,119.34 l 20.9,116.87 167.3,0.83 c 91.95,0.46 168.13,-0.28 169.34,-1.57 1.17,-1.33 -7.27,-55.04 -18.75,-119.33 l -20.9,-116.92 -168.09,-0.82 c -92.46,-0.43 -168.67,0.28 -169.37,1.6 z"
         style="fill:#345587;fill-opacity:1;fill-rule:nonzero;stroke:none"
         transform="matrix(0.13333333,0,0,-0.13333333,0,602.66667)" />
      <path
         id="path3"
         d="m 20.156602,-23.569737 -0.632813,3.215953 c -1.101562,-0.587039 -2.197266,-1.027319 -3.28125,-1.327219 -1.078125,-0.29671 -2.126953,-0.44666 -3.140625,-0.44666 -1.96875,0 -3.5361327,0.430708 -4.6992187,1.288933 -1.1660156,0.861416 -1.7460937,2.00359 -1.7460937,3.432903 0,0.784845 0.2138672,1.384646 0.6445312,1.799402 0.4277344,0.417946 1.538086,0.864606 3.3281252,1.339981 l 1.96875,0.497707 c 2.232422,0.571086 3.785156,1.301695 4.652344,2.195015 0.867187,0.88694 1.300781,2.1280168 1.300781,3.726422 0,2.4598213 -0.966797,4.4634112 -2.894531,6.0107696 -1.930664,1.5409775 -4.473633,2.30987106 -7.6289067,2.30987106 -1.2978515,0 -2.5986328,-0.12761719 -3.9023437,-0.38285157 C 2.8187109,-0.16474528 1.5120703,-0.55078727 0.19957031,-1.0708273 l 0.66796875,-3.3946172 c 1.20117184,0.749751 2.40820314,1.314457 3.62109374,1.6973086 1.21875,0.3764707 2.4316406,0.5615156 3.6445313,0.5615156 2.0537109,0 3.6972659,-0.453041 4.9335939,-1.3655039 1.242187,-0.9092724 1.863281,-2.0993027 1.863281,-3.5732812 0,-0.9762715 -0.251953,-1.7164512 -0.75,-2.2205391 -0.492187,-0.5104687 -1.552734,-0.9730815 -3.175781,-1.3910275 l -1.9804689,-0.497707 c -2.25,-0.587039 -3.7851563,-1.26341 -4.6054688,-2.029113 -0.8203125,-0.772084 -1.2304687,-1.850449 -1.2304687,-3.228715 0,-2.424727 0.9287109,-4.409174 2.7890625,-5.959723 1.8662109,-1.556929 4.2949219,-2.335394 7.2890629,-2.335394 1.163086,0 2.314453,0.108474 3.457031,0.319043 1.148437,0.204187 2.291015,0.510469 3.433594,0.918844 z m 0,0"
         style="fill:#345587;fill-opacity:1;fill-rule:nonzero;stroke:none"
         aria-label="S"
         transform="matrix(1.3333333,0,0,1.2243649,554.98,436.21733)" />
      <path
         id="path4"
         d="m 4185.49,-1529.96 -6.11,30.72 c -10.53,-5.63 -20.98,-9.87 -31.32,-12.6 -10.45,-2.86 -20.45,-4.36 -30.12,-4.36 -18.85,0 -33.84,4.11 -45.07,12.4 -11.2,8.24 -16.82,19.17 -16.82,32.76 0,7.51 2.02,13.31 6.1,17.42 4.2,4 14.83,8.25 31.99,12.85 l 18.96,4.58 c 21.47,5.67 36.27,12.76 44.59,21.29 8.43,8.45 12.67,20.33 12.67,35.55 0,23.7 -9.3,42.95 -27.81,57.77 -18.54,14.8 -42.93,22.24 -73.24,22.24 -12.55,0 -24.99,-1.27 -37.47,-3.68 -12.51,-2.4 -25.06,-6.2 -37.65,-11.22 l 6.3,-32.56 c 11.61,7.22 23.26,12.61 34.91,16.28 11.65,3.67 23.23,5.47 34.73,5.47 19.78,0 35.59,-4.32 47.36,-13.06 11.91,-8.82 17.91,-20.28 17.91,-34.36 0,-9.46 -2.44,-16.56 -7.16,-21.33 -4.64,-4.86 -14.84,-9.3 -30.54,-13.3 l -18.91,-4.82 c -21.62,-5.59 -36.38,-12.16 -44.22,-19.46 -7.9,-7.47 -11.72,-17.79 -11.72,-30.97 0,-23.37 8.84,-42.43 26.67,-57.29 17.95,-14.76 41.3,-22.23 70.11,-22.23 11.05,0 22.1,1.02 33.04,2.98 10.94,2 21.88,4.98 32.82,8.93 z"
         style="fill:none;stroke:#345587;stroke-width:20.952;stroke-linecap:butt;stroke-linejoin:miter;stroke-miterlimit:4;stroke-dasharray:none;stroke-opacity:1"
         transform="matrix(0.13901467,0,0,0.12765213,0,602.66667)" />
      <path
         id="path5"
         d="M 5.6495156,-24.360964 H 21.047953 l -0.539062,2.769293 H 8.3917031 l -1.40625,7.210371 H 18.622172 l -0.539063,2.782055 H 6.4463906 L 4.7471719,-2.7681359 H 17.157328 L 16.618266,0.00115706 H 0.90342188 Z m 0,0"
         style="fill:#345587;fill-opacity:1;fill-rule:nonzero;stroke:none"
         aria-label="E"
         transform="matrix(1.3333333,0,0,1.2243649,583.272,436.21733)" />
      <path
         id="path6"
         d="m 4249.86,-1537.74 h 147.72 l -5.01,26.59 h -116.41 l -13.49,69.2 h 111.76 l -5.21,26.61 h -111.61 l -16.41,84.82 h 119.14 l -5.25,26.57 h -150.71 z"
         style="fill:none;stroke:#345587;stroke-width:20.952;stroke-linecap:butt;stroke-linejoin:miter;stroke-miterlimit:4;stroke-dasharray:none;stroke-opacity:1"
         transform="matrix(0.13901467,0,0,0.12765213,0,602.66667)" />
      <path
         id="path7"
         d="m 8.4260469,-21.65548 -1.6640625,8.652446 h 4.2421876 c 1.664062,0 3.005859,-0.459422 4.03125,-1.378266 1.03125,-0.918844 1.546875,-2.118445 1.546875,-3.598805 0,-1.19003 -0.348633,-2.099302 -1.042969,-2.731007 -0.688476,-0.628515 -1.68164,-0.944368 -2.976562,-0.944368 z m 6.0468751,9.954141 c 0.694336,0.162712 1.271484,0.567896 1.734375,1.212363 0.46875,0.6380862 1.007812,1.9142581 1.617187,3.8285159 l 2.074219,6.66161716 H 16.418234 L 14.508078,-6.2520851 C 14.015891,-7.8600617 13.447531,-8.9352365 12.808859,-9.4808 12.167258,-10.023173 11.182883,-10.29755 9.8557344,-10.29755 H 6.2229219 L 4.2072969,0.00115706 H 0.90260938 L 5.6487031,-24.360964 h 7.4179689 c 2.255859,0 3.984375,0.510469 5.179687,1.531406 1.201172,1.014557 1.804688,2.475774 1.804688,4.390031 0,1.694119 -0.512695,3.161716 -1.535156,4.402793 -1.016602,1.244268 -2.364258,2.022733 -4.042969,2.335395 z m 0,0"
         style="fill:#345587;fill-opacity:1;fill-rule:nonzero;stroke:none"
         aria-label="R"
         transform="matrix(1.3333333,0,0,1.2243649,611.42933,436.21733)" />
      <path
         id="path8"
         d="m 4479.15,-1511.59 -16,82.95 h 40.61 c 16,0 28.93,-4.42 38.74,-13.31 9.97,-8.81 14.95,-20.4 14.95,-34.59 0,-11.31 -3.37,-19.96 -10.12,-25.92 -6.62,-6.03 -16.06,-9.13 -28.4,-9.13 z m 58.11,95.35 c 6.63,1.55 12.02,5.43 16.41,11.67 4.45,6.12 9.74,18.36 15.59,36.68 l 19.97,63.94 h -33.47 l -18.31,-60.07 c -4.61,-15.38 -10.01,-25.7 -16.19,-30.92 -6.22,-5.19 -15.7,-7.8 -28.43,-7.8 h -34.92 l -19.11,98.79 h -31.84 l 45.48,-233.79 h 71.33 c 21.58,0 38.14,4.92 49.68,14.64 11.46,9.83 17.28,23.86 17.28,42.18 0,16.41 -4.92,30.49 -14.77,42.44 -9.82,11.79 -22.7,19.18 -38.7,22.24 z"
         style="fill:none;stroke:#345587;stroke-width:20.952;stroke-linecap:butt;stroke-linejoin:miter;stroke-miterlimit:4;stroke-dasharray:none;stroke-opacity:1"
         transform="matrix(0.13901467,0,0,0.12765213,0,602.66667)" />
      <path
         id="path9"
         d="M 6.8914531,0.00115706 2.6141094,-24.360964 h 3.234375 L 9.3875469,-3.4062218 21.211766,-24.360964 h 3.597656 L 10.723484,0.00115706 Z m 0,0"
         style="fill:#345587;fill-opacity:1;fill-rule:nonzero;stroke:none"
         aria-label="V"
         transform="matrix(1.3333333,0,0,1.2243649,642.39733,436.21733)" />
      <path
         id="path10"
         d="m 4687.16,-1303.95 -41.07,-233.79 h 30.96 l 34.09,201.02 113.45,-201.02 h 34.32 l -134.92,233.79 z"
         style="fill:none;stroke:#345587;stroke-width:20.952;stroke-linecap:butt;stroke-linejoin:miter;stroke-miterlimit:4;stroke-dasharray:none;stroke-opacity:1"
         transform="matrix(0.13901467,0,0,0.12765213,0,602.66667)" />
      <path
         id="path11"
         d="M 5.6494766,-24.360964 H 8.9658828 L 4.2080703,0.00115706 H 0.90338281 Z m 0,0"
         style="fill:#345587;fill-opacity:1;fill-rule:nonzero;stroke:none"
         aria-label="I"
         transform="matrix(1.3333333,0,0,1.2243649,672.88533,436.21733)" />
      <path
         id="path12"
         d="m 4894.5,-1537.74 h 31.77 l -45.45,233.79 h -31.81 z"
         style="fill:none;stroke:#345587;stroke-width:20.952;stroke-linecap:butt;stroke-linejoin:miter;stroke-miterlimit:4;stroke-dasharray:none;stroke-opacity:1"
         transform="matrix(0.13901467,0,0,0.12765213,0,602.66667)" />
      <path
         id="path13"
         d="m 23.22607,-22.484991 -0.667968,3.471187 c -1.048829,-1.052842 -2.15625,-1.837687 -3.328125,-2.348156 -1.171875,-0.510469 -2.4375,-0.765703 -3.796875,-0.765703 -1.860352,0 -3.492188,0.44666 -4.898438,1.33998 -1.4062499,0.893321 -2.6220702,2.252444 -3.6445312,4.070989 -0.65625,1.183649 -1.1572265,2.431107 -1.5,3.739183 -0.3457031,1.311267 -0.515625,2.628914 -0.515625,3.9561329 0,2.2205391 0.5742188,3.9146572 1.7226563,5.0791641 1.1484375,1.1581259 2.8154297,1.7355937 5.0039059,1.7355937 1.514649,0 2.967774,-0.2360918 4.359375,-0.7146562 1.388672,-0.4849453 2.745118,-1.2123633 4.066407,-2.1822539 l -0.773438,3.8923242 c -1.289062,0.56151561 -2.598633,0.98265233 -3.925781,1.26341014 -1.321289,0.28075781 -2.645508,0.42113672 -3.972656,0.42113672 -3.1171879,0 -5.5546879,-0.84546387 -7.3125004,-2.53958206 -1.7578125,-1.700499 -2.6367188,-4.061417 -2.6367188,-7.0827539 0,-1.9397817 0.3310547,-3.8444677 0.9960938,-5.7172497 0.6708984,-1.869592 1.6318359,-3.579662 2.8828125,-5.130211 1.3271484,-1.639881 2.8417968,-2.852244 4.546875,-3.63709 1.7021489,-0.781655 3.6855469,-1.174078 5.9531249,-1.174078 1.388672,0 2.707031,0.197806 3.949219,0.587039 1.248047,0.382851 2.414062,0.96351 3.492187,1.735594 z m 0,0"
         style="fill:#345587;fill-opacity:1;fill-rule:nonzero;stroke:none"
         aria-label="C"
         transform="matrix(1.3333333,0,0,1.2243649,686.028,436.21733)" />
      <path
         id="path14"
         d="m 5157.62,-1519.64 -6.29,33.22 c -10.12,-10.08 -20.8,-17.5 -32,-22.44 -11.28,-4.86 -23.37,-7.34 -36.42,-7.34 -17.79,0 -33.45,4.27 -46.87,12.85 -13.49,8.6 -25.21,21.54 -34.99,38.96 -6.33,11.34 -11.13,23.34 -14.54,35.98 -3.22,12.53 -4.82,25.15 -4.82,37.83 0,21.42 5.47,37.7 16.4,48.79 11.06,11.19 27.17,16.74 48.18,16.74 14.51,0 28.33,-2.29 41.71,-6.86 13.29,-4.69 26.3,-11.74 38.92,-21.09 l -7.16,37.37 c -12.48,5.39 -25.14,9.39 -37.87,12.12 -12.63,2.77 -25.26,4.17 -37.88,4.17 -30.05,0 -53.43,-8.09 -70.26,-24.33 -16.88,-16.31 -25.31,-39.01 -25.31,-68.1 0,-18.59 3.18,-36.87 9.55,-54.74 6.33,-18 15.62,-34.44 27.69,-49.29 12.81,-15.71 27.34,-27.34 43.57,-34.81 16.3,-7.46 35.25,-11.26 57.06,-11.26 13.3,0 26,1.84 37.88,5.5 12.06,3.68 23.19,9.31 33.45,16.73 z"
         style="fill:none;stroke:#345587;stroke-width:20.952;stroke-linecap:butt;stroke-linejoin:miter;stroke-miterlimit:4;stroke-dasharray:none;stroke-opacity:1"
         transform="matrix(0.13901467,0,0,0.12765213,0,602.66667)" />
      <path
         id="path15"
         d="M 5.6487656,-24.360964 H 8.9651719 L 4.2073594,0.00115706 H 0.90267188 Z m 0,0"
         style="fill:#345587;fill-opacity:1;fill-rule:nonzero;stroke:none"
         aria-label="I"
         transform="matrix(1.3333333,0,0,1.2243649,717.148,436.21733)" />
      <path
         id="path16"
         d="m 5212.88,-1537.74 h 31.77 l -45.44,233.79 h -31.81 z"
         style="fill:none;stroke:#345587;stroke-width:20.952;stroke-linecap:butt;stroke-linejoin:miter;stroke-miterlimit:4;stroke-dasharray:none;stroke-opacity:1"
         transform="matrix(0.13901467,0,0,0.12765213,0,602.66667)" />
      <path
         id="path17"
         d="m 15.244891,-22.127663 c -1.804688,0 -3.398438,0.440279 -4.78125,1.314457 -1.3828129,0.877368 -2.5869144,2.214158 -3.6093754,4.007179 -0.65625,1.142174 -1.1572265,2.354538 -1.5,3.63709 -0.336914,1.285743 -0.5039062,2.577868 -0.5039062,3.8795628 0,2.2652051 0.5390625,4.0135606 1.6171875,5.2450664 1.0839843,1.225125 2.6162109,1.8376875 4.5937501,1.8376875 1.787109,0 3.37793,-0.4402793 4.769531,-1.3272187 1.397461,-0.8837491 2.592774,-2.2013965 3.585938,-3.9561328 0.662109,-1.1740782 1.166015,-2.4023936 1.511718,-3.6881372 0.351563,-1.292124 0.527344,-2.581057 0.527344,-3.8668 0,-2.252444 -0.544922,-3.997609 -1.628906,-5.232305 -1.086914,-1.231506 -2.613281,-1.850449 -4.582031,-1.850449 z M 10.967547,0.47334066 c -2.9941408,0 -5.3496095,-0.88374903 -7.0664064,-2.65443746 -1.7109375,-1.7770694 -2.5664062,-4.2049864 -2.5664062,-7.2869414 0,-1.7611168 0.3310547,-3.5605198 0.9960937,-5.3982068 0.6708985,-1.837688 1.5966797,-3.474378 2.7773438,-4.913262 1.3828125,-1.684547 2.9208984,-2.941576 4.6171875,-3.777469 1.6933596,-0.832702 3.5654296,-1.250648 5.6132816,-1.250648 2.982421,0 5.334961,0.880558 7.054687,2.641676 1.716797,1.754736 2.578125,4.147558 2.578125,7.184847 0,1.872782 -0.328125,3.71366 -0.984375,5.5258245 -0.650391,1.8057832 -1.582031,3.4392832 -2.800781,4.9005 -1.400391,1.7036894 -2.938477,2.9670996 -4.617188,3.79023044 -1.68164,0.82313086 -3.547851,1.23788672 -5.601562,1.23788672 z m 0,0"
         style="fill:#345587;fill-opacity:1;fill-rule:nonzero;stroke:none"
         aria-label="O"
         transform="matrix(1.3333333,0,0,1.2243649,730.29067,436.21733)" />
      <path
         id="path18"
         d="m 5399.69,-1516.2 c -17.42,0 -32.85,4.24 -46.16,12.6 -13.22,8.45 -24.72,21.21 -34.51,38.28 -6.21,11.01 -10.93,22.68 -14.31,35.08 -3.26,12.28 -4.83,24.64 -4.83,37.13 0,21.71 5.13,38.52 15.55,50.43 10.37,11.79 25.07,17.63 43.98,17.63 17.12,0 32.37,-4.25 45.71,-12.81 13.45,-8.53 24.92,-21.22 34.51,-38.07 6.29,-11.1 11.17,-22.93 14.53,-35.29 3.42,-12.37 5.11,-24.77 5.11,-37.13 0,-21.55 -5.32,-38.2 -15.78,-49.98 -10.5,-11.92 -25.06,-17.87 -43.8,-17.87 z m -41.1,216.86 c -28.78,0 -51.37,-8.49 -67.74,-25.47 -16.45,-17.09 -24.65,-40.39 -24.65,-69.89 0,-16.98 3.15,-34.23 9.52,-51.81 6.37,-17.72 15.32,-33.47 26.71,-47.25 13.19,-16.12 27.83,-28.23 44.14,-36.2 16.3,-7.91 34.24,-11.91 53.91,-11.91 28.62,0 51.14,8.4 67.55,25.22 16.52,16.85 24.91,39.82 24.91,68.99 0,17.88 -3.22,35.54 -9.55,52.96 -6.18,17.3 -15.14,32.93 -26.93,46.96 -13.35,16.4 -28.1,28.56 -44.22,36.44 -16.14,7.91 -34.02,11.96 -53.65,11.96 z"
         style="fill:none;stroke:#345587;stroke-width:20.952;stroke-linecap:butt;stroke-linejoin:miter;stroke-miterlimit:4;stroke-dasharray:none;stroke-opacity:1"
         transform="matrix(0.13901467,0,0,0.12765213,0,602.66667)" />
      <path
         id="path19"
         d="M 5.6486641,-24.360964 H 10.09007 l 6.714844,20.8909336 4.089844,-20.8909336 h 3.210937 L 19.359602,0.00115706 H 14.894758 L 8.1916328,-21.017394 4.1135078,0.00115706 H 0.90257031 Z m 0,0"
         style="fill:#345587;fill-opacity:1;fill-rule:nonzero;stroke:none"
         aria-label="N"
         transform="matrix(1.3333333,0,0,1.2243649,779.54267,436.21733)" />
      <path
         id="path20"
         d="m 5661.65,-1537.74 h 42.75 l 64.45,200.33 39.11,-200.33 h 30.72 l -45.44,233.79 h -42.75 l -64.41,-201.68 -39.15,201.68 h -30.72 z"
         style="fill:none;stroke:#345587;stroke-width:20.952;stroke-linecap:butt;stroke-linejoin:miter;stroke-miterlimit:4;stroke-dasharray:none;stroke-opacity:1"
         transform="matrix(0.13901467,0,0,0.12765213,0,602.66667)" />
      <path
         id="path21"
         d="m 12.316656,-24.360964 h 3.738282 L 20.578375,0.00115706 H 17.133063 L 16.113531,-6.2520851 H 5.1565 L 1.7111875,0.00115706 h -3.4804687 z m 1.195313,3.241477 -6.8437502,12.1236323 h 8.9414062 z m 0,0"
         style="fill:#345587;fill-opacity:1;fill-rule:nonzero;stroke:none"
         aria-label="A"
         transform="matrix(1.3333333,0,0,1.2243649,812.87467,436.21733)" />
      <path
         id="path22"
         d="m 5965.55,-1537.74 h 35.77 l 43.39,233.79 h -33.13 l -9.66,-60.07 h -105.24 l -33.04,60.07 h -33.28 z m 11.3,31.17 -65.67,116.44 h 85.91 z"
         style="fill:none;stroke:#345587;stroke-width:20.952;stroke-linecap:butt;stroke-linejoin:miter;stroke-miterlimit:4;stroke-dasharray:none;stroke-opacity:1"
         transform="matrix(0.13901467,0,0,0.12765213,0,602.66667)" />
      <path
         id="path23"
         d="m 23.227023,-22.484991 -0.667968,3.471187 c -1.048828,-1.052842 -2.15625,-1.837687 -3.328125,-2.348156 -1.171875,-0.510469 -2.4375,-0.765703 -3.796875,-0.765703 -1.860352,0 -3.492188,0.44666 -4.898438,1.33998 -1.4062498,0.893321 -2.6220701,2.252444 -3.6445311,4.070989 -0.65625,1.183649 -1.1572265,2.431107 -1.5,3.739183 -0.3457031,1.311267 -0.515625,2.628914 -0.515625,3.9561329 0,2.2205391 0.5742188,3.9146572 1.7226563,5.0791641 1.1484375,1.1581259 2.8154297,1.7355937 5.0039058,1.7355937 1.514649,0 2.967774,-0.2360918 4.359375,-0.7146562 1.388672,-0.4849453 2.745118,-1.2123633 4.066407,-2.1822539 l -0.773438,3.8923242 c -1.289062,0.56151561 -2.598633,0.98265233 -3.925781,1.26341014 -1.321289,0.28075781 -2.645508,0.42113672 -3.972656,0.42113672 -3.1171878,0 -5.5546878,-0.84546387 -7.3125003,-2.53958206 -1.7578125,-1.700499 -2.6367188,-4.061417 -2.6367188,-7.0827539 0,-1.9397817 0.3310547,-3.8444677 0.9960938,-5.7172497 0.6708984,-1.869592 1.6318359,-3.579662 2.8828125,-5.130211 1.3271484,-1.639881 2.8417969,-2.852244 4.546875,-3.63709 1.7021488,-0.781655 3.6855468,-1.174078 5.9531248,-1.174078 1.388672,0 2.707031,0.197806 3.949219,0.587039 1.248047,0.382851 2.414062,0.96351 3.492187,1.735594 z m 0,0"
         style="fill:#345587;fill-opacity:1;fill-rule:nonzero;stroke:none"
         aria-label="C"
         transform="matrix(1.3333333,0,0,1.2243649,843.36267,436.21733)" />
      <path
         id="path24"
         d="m 6289.44,-1519.64 -6.34,33.22 c -10.04,-10.08 -20.79,-17.5 -31.99,-22.44 -11.2,-4.86 -23.35,-7.34 -36.34,-7.34 -17.91,0 -33.46,4.27 -46.98,12.85 -13.5,8.6 -25.11,21.54 -34.96,38.96 -6.29,11.34 -11.17,23.34 -14.54,35.98 -3.25,12.53 -4.83,25.15 -4.83,37.83 0,21.42 5.55,37.7 16.44,48.79 11.1,11.19 27.13,16.74 48.19,16.74 14.43,0 28.28,-2.29 41.66,-6.86 13.34,-4.69 26.38,-11.74 39,-21.09 l -7.19,37.37 c -12.56,5.39 -25.1,9.39 -37.91,12.12 -12.64,2.77 -25.26,4.17 -37.88,4.17 -30.05,0 -53.47,-8.09 -70.3,-24.33 -16.78,-16.31 -25.24,-39.01 -25.24,-68.1 0,-18.59 3.15,-36.87 9.44,-54.74 6.52,-18 15.7,-34.44 27.87,-49.29 12.67,-15.71 27.16,-27.34 43.5,-34.81 16.3,-7.46 35.25,-11.26 57.06,-11.26 13.3,0 25.93,1.84 37.92,5.5 12.03,3.68 23.15,9.31 33.42,16.73 z"
         style="fill:none;stroke:#345587;stroke-width:20.952;stroke-linecap:butt;stroke-linejoin:miter;stroke-miterlimit:4;stroke-dasharray:none;stroke-opacity:1"
         transform="matrix(0.13901467,0,0,0.12765213,0,602.66667)" />
      <path
         id="path25"
         d="M 5.6497188,-24.360964 H 8.966125 L 4.2083125,0.00115706 H 0.903625 Z m 0,0"
         style="fill:#345587;fill-opacity:1;fill-rule:nonzero;stroke:none"
         aria-label="I"
         transform="matrix(1.3333333,0,0,1.2243649,874.48267,436.21733)" />
      <path
         id="path26"
         d="m 6344.74,-1537.74 h 31.73 l -45.49,233.79 h -31.76 z"
         style="fill:none;stroke:#345587;stroke-width:20.952;stroke-linecap:butt;stroke-linejoin:miter;stroke-miterlimit:4;stroke-dasharray:none;stroke-opacity:1"
         transform="matrix(0.13901467,0,0,0.12765213,0,602.66667)" />
      <path
         id="path27"
         d="m 15.244844,-22.127663 c -1.804688,0 -3.398438,0.440279 -4.78125,1.314457 -1.3828128,0.877368 -2.5869143,2.214158 -3.6093753,4.007179 -0.65625,1.142174 -1.1572265,2.354538 -1.5,3.63709 -0.336914,1.285743 -0.5039062,2.577868 -0.5039062,3.8795628 0,2.2652051 0.5390625,4.0135606 1.6171875,5.2450664 1.0839844,1.225125 2.6162109,1.8376875 4.59375,1.8376875 1.787109,0 3.37793,-0.4402793 4.769531,-1.3272187 1.397461,-0.8837491 2.592774,-2.2013965 3.585938,-3.9561328 0.662109,-1.1740782 1.166015,-2.4023936 1.511718,-3.6881372 0.351563,-1.292124 0.527344,-2.581057 0.527344,-3.8668 0,-2.252444 -0.544922,-3.997609 -1.628906,-5.232305 -1.086914,-1.231506 -2.613281,-1.850449 -4.582031,-1.850449 z M 10.9675,0.47334066 c -2.9941406,0 -5.3496094,-0.88374903 -7.0664063,-2.65443746 -1.7109375,-1.7770694 -2.5664062,-4.2049864 -2.5664062,-7.2869414 0,-1.7611168 0.3310547,-3.5605198 0.9960937,-5.3982068 0.6708985,-1.837688 1.5966797,-3.474378 2.7773438,-4.913262 1.3828125,-1.684547 2.9208984,-2.941576 4.6171875,-3.777469 1.6933595,-0.832702 3.5654295,-1.250648 5.6132815,-1.250648 2.982422,0 5.334961,0.880558 7.054687,2.641676 1.716797,1.754736 2.578125,4.147558 2.578125,7.184847 0,1.872782 -0.328125,3.71366 -0.984375,5.5258245 -0.65039,1.8057832 -1.582031,3.4392832 -2.800781,4.9005 -1.400391,1.7036894 -2.938477,2.9670996 -4.617188,3.79023044 -1.68164,0.82313086 -3.547851,1.23788672 -5.601562,1.23788672 z m 0,0"
         style="fill:#345587;fill-opacity:1;fill-rule:nonzero;stroke:none"
         aria-label="O"
         transform="matrix(1.3333333,0,0,1.2243649,887.62667,436.21733)" />
      <path
         id="path28"
         d="m 6531.43,-1516.2 c -17.43,0 -32.74,4.24 -46.08,12.6 -13.23,8.45 -24.77,21.21 -34.48,38.28 -6.29,11.01 -11,22.68 -14.38,35.08 -3.26,12.28 -4.8,24.64 -4.8,37.13 0,21.71 5.13,38.52 15.55,50.43 10.42,11.79 25.1,17.63 43.98,17.63 17.09,0 32.3,-4.25 45.68,-12.81 13.48,-8.53 24.96,-21.22 34.58,-38.07 6.3,-11.1 11.09,-22.93 14.5,-35.29 3.38,-12.37 5.06,-24.77 5.06,-37.13 0,-21.55 -5.24,-38.2 -15.85,-49.98 -10.34,-11.92 -24.99,-17.87 -43.76,-17.87 z m -41.07,216.86 c -28.7,0 -51.32,-8.49 -67.77,-25.47 -16.41,-17.09 -24.61,-40.39 -24.61,-69.89 0,-16.98 3.15,-34.23 9.47,-51.81 6.49,-17.72 15.44,-33.47 26.8,-47.25 13.11,-16.12 27.83,-28.23 44.2,-36.2 16.27,-7.91 34.14,-11.91 53.88,-11.91 28.63,0 51.11,8.4 67.48,25.22 16.56,16.85 24.87,39.82 24.87,68.99 0,17.88 -3.11,35.54 -9.48,52.96 -6.18,17.3 -15.17,32.93 -26.9,46.96 -13.41,16.4 -28.13,28.56 -44.17,36.44 -16.19,7.91 -34.13,11.96 -53.77,11.96 z"
         style="fill:none;stroke:#345587;stroke-width:20.952;stroke-linecap:butt;stroke-linejoin:miter;stroke-miterlimit:4;stroke-dasharray:none;stroke-opacity:1"
         transform="matrix(0.13901467,0,0,0.12765213,0,602.66667)" />
      <path
         id="path29"
         d="m 5.6497109,-24.360964 h 4.4414061 l 6.714844,20.8909336 4.089844,-20.8909336 h 3.210937 L 19.360648,0.00115706 H 14.895805 L 8.1926797,-21.017394 4.1145547,0.00115706 H 0.90361719 Z m 0,0"
         style="fill:#345587;fill-opacity:1;fill-rule:nonzero;stroke:none"
         aria-label="N"
         transform="matrix(1.3333333,0,0,1.2243649,922.70533,436.21733)" />
      <path
         id="path30"
         d="m 6691.6,-1537.74 h 42.79 l 64.36,200.33 39.12,-200.33 h 30.8 l -45.45,233.79 h -42.75 l -64.44,-201.68 -39.15,201.68 h -30.73 z"
         style="fill:none;stroke:#345587;stroke-width:20.952;stroke-linecap:butt;stroke-linejoin:miter;stroke-miterlimit:4;stroke-dasharray:none;stroke-opacity:1"
         transform="matrix(0.13901467,0,0,0.12765213,0,602.66667)" />
      <path
         id="path31"
         d="m 12.316633,-24.360964 h 3.738281 L 20.578352,0.00115706 H 17.133039 L 16.113508,-6.2520851 H 5.1564766 L 1.7111641,0.00115706 h -3.4804688 z m 1.195312,3.241477 -6.8437497,12.1236323 h 8.9414067 z m 0,0"
         style="fill:#345587;fill-opacity:1;fill-rule:nonzero;stroke:none"
         aria-label="A"
         transform="matrix(1.3333333,0,0,1.2243649,956.04267,436.21733)" />
      <path
         id="path32"
         d="m 6995.41,-1537.74 h 35.74 l 43.43,233.79 h -33.05 l -9.7,-60.07 h -105.28 l -33.01,60.07 h -33.31 z m 11.31,31.17 -65.67,116.44 h 85.91 z"
         style="fill:none;stroke:#345587;stroke-width:20.952;stroke-linecap:butt;stroke-linejoin:miter;stroke-miterlimit:4;stroke-dasharray:none;stroke-opacity:1"
         transform="matrix(0.13901467,0,0,0.12765213,0,602.66667)" />
      <path
         id="path33"
         d="M 5.6137187,-24.360964 H 8.930125 L 4.7465312,-2.7426125 H 16.617625 L 16.078562,0.00115706 H 0.90278125 Z m 0,0"
         style="fill:#345587;fill-opacity:1;fill-rule:nonzero;stroke:none"
         aria-label="L"
         transform="matrix(1.3333333,0,0,1.2243649,986.53067,436.21733)" />
      <path
         id="path34"
         d="m 7150.49,-1537.74 h 31.84 l -40.27,207.43 h 113.89 l -5.2,26.36 h -145.53 z"
         style="fill:none;stroke:#345587;stroke-width:20.952;stroke-linecap:butt;stroke-linejoin:miter;stroke-miterlimit:4;stroke-dasharray:none;stroke-opacity:1"
         transform="matrix(0.13901467,0,0,0.12765213,0,602.66667)" />
      <path
         id="path35"
         d="M 5.6498047,-24.360964 H 12.72793 c 3.764648,0 6.609375,0.797607 8.53125,2.386441 1.921875,1.592025 2.882812,3.962514 2.882812,7.108278 0,2.076969 -0.36914,4.077369 -1.101562,5.9980075 -0.726563,1.9238291 -1.731446,3.541377 -3.011719,4.8494532 -1.297852,1.3527421 -2.941406,2.3609179 -4.933594,3.0245273 -1.992187,0.66360938 -4.347656,0.99541406 -7.0664061,0.99541406 H 0.90371094 Z m 2.7773437,2.705484 -3.6796875,18.9511527 h 4.3125 c 3.6855471,0 6.5419921,-1.0592227 8.5664061,-3.177668 2.021485,-2.1248262 3.035156,-5.1206397 3.035156,-8.9842497 0,-2.338585 -0.65332,-4.051846 -1.957031,-5.142973 -1.30664,-1.097508 -3.351562,-1.646262 -6.140625,-1.646262 z m 0,0"
         style="fill:#345587;fill-opacity:1;fill-rule:nonzero;stroke:none"
         aria-label="D"
         transform="matrix(1.3333333,0,0,1.2243649,1025.5333,436.21733)" />
      <path
         id="path36"
         d="m 7431.25,-1537.74 h 67.97 c 36.08,0 63.24,7.66 81.71,22.92 18.51,15.31 27.73,38.07 27.73,68.31 0,19.86 -3.53,39.08 -10.46,57.53 -7.12,18.35 -16.75,33.85 -29.07,46.54 -12.37,12.98 -28.1,22.65 -47.13,29.09 -19.11,6.34 -41.67,9.4 -67.78,9.4 h -68.45 z m 26.75,26.15 -35.4,181.77 h 41.51 c 35.37,0 62.68,-10.16 82.02,-30.53 19.44,-20.43 29.11,-49.16 29.11,-86.16 0,-22.48 -6.26,-38.85 -18.73,-49.29 -12.6,-10.54 -32.08,-15.79 -58.71,-15.79 z"
         style="fill:none;stroke:#345587;stroke-width:20.952;stroke-linecap:butt;stroke-linejoin:miter;stroke-miterlimit:4;stroke-dasharray:none;stroke-opacity:1"
         transform="matrix(0.13901467,0,0,0.12765213,0,602.66667)" />
      <path
         id="path37"
         d="m 5.64725,-24.360964 h 15.398438 l -0.539063,2.769293 H 8.3894375 l -1.40625,7.210371 H 18.619906 l -0.539062,2.782055 H 6.444125 L 4.7449063,-2.7681359 H 17.155063 L 16.616,0.00115706 H 0.90115625 Z m 0,0"
         style="fill:#345587;fill-opacity:1;fill-rule:nonzero;stroke:none"
         aria-label="E"
         transform="matrix(1.3333333,0,0,1.2243649,1059.8453,436.21733)" />
      <path
         id="path38"
         d="m 7678.11,-1537.74 h 147.78 l -5.03,26.59 h -116.41 l -13.44,69.2 h 111.69 l -5.17,26.61 h -111.62 l -16.37,84.82 h 119.07 l -5.21,26.57 h -150.77 z"
         style="fill:none;stroke:#345587;stroke-width:20.952;stroke-linecap:butt;stroke-linejoin:miter;stroke-miterlimit:4;stroke-dasharray:none;stroke-opacity:1"
         transform="matrix(0.13901467,0,0,0.12765213,0,602.66667)" />
      <path
         id="path39"
         d="m 5.6492031,-24.360964 h 4.9453129 l 2.835937,16.4115703 9.433594,-16.4115703 h 5.074219 L 23.192172,0.00115706 H 19.992953 L 24.141391,-21.36196 14.578891,-4.6823937 H 11.356234 L 8.2624844,-21.425769 4.1140469,0.00115706 H 0.90310937 Z m 0,0"
         style="fill:#345587;fill-opacity:1;fill-rule:nonzero;stroke:none"
         aria-label="M"
         transform="matrix(1.3333333,0,0,1.2243649,1102.1787,436.21733)" />
      <path
         id="path40"
         d="m 7982.6,-1537.74 h 47.58 l 27.17,157.48 90.48,-157.48 h 48.63 l -45.45,233.79 h -30.75 l 39.78,-204.91 -91.75,159.98 h -30.72 l -29.9,-160.67 -39.79,205.6 h -30.72 z"
         style="fill:none;stroke:#345587;stroke-width:20.952;stroke-linecap:butt;stroke-linejoin:miter;stroke-miterlimit:4;stroke-dasharray:none;stroke-opacity:1"
         transform="matrix(0.13901467,0,0,0.12765213,0,602.66667)" />
      <path
         id="path41"
         d="M 5.6491875,-24.360964 H 21.047625 l -0.539062,2.769293 H 8.391375 l -1.40625,7.210371 h 11.636719 l -0.539063,2.782055 H 6.4460625 L 4.7468438,-2.7681359 H 17.157 L 16.617938,0.00115706 H 0.90309375 Z m 0,0"
         style="fill:#345587;fill-opacity:1;fill-rule:nonzero;stroke:none"
         aria-label="E"
         transform="matrix(1.3333333,0,0,1.2243649,1140.624,436.21733)" />
      <path
         id="path42"
         d="m 8259.25,-1537.74 h 147.77 l -5.06,26.59 h -116.41 l -13.48,69.2 h 111.76 l -5.24,26.61 h -111.54 l -16.45,84.82 h 119.15 l -5.29,26.57 h -150.69 z"
         style="fill:none;stroke:#345587;stroke-width:20.952;stroke-linecap:butt;stroke-linejoin:miter;stroke-miterlimit:4;stroke-dasharray:none;stroke-opacity:1"
         transform="matrix(0.13901467,0,0,0.12765213,0,602.66667)" />
      <path
         id="path43"
         d="M 1.9794063,-24.360964 H 22.580969 l -0.515625,2.769293 H 13.370031 L 9.1864375,0.00115706 H 5.8700313 L 10.053625,-21.591671 H 1.4403438 Z m 0,0"
         style="fill:#345587;fill-opacity:1;fill-rule:nonzero;stroke:none"
         aria-label="T"
         transform="matrix(1.3333333,0,0,1.2243649,1168.7827,436.21733)" />
      <path
         id="path44"
         d="m 8426.69,-1537.74 h 197.64 l -5.07,26.59 h -83.36 l -39.97,207.2 h -31.78 l 39.98,-207.2 h -82.73 z"
         style="fill:none;stroke:#345587;stroke-width:20.952;stroke-linecap:butt;stroke-linejoin:miter;stroke-miterlimit:4;stroke-dasharray:none;stroke-opacity:1"
         transform="matrix(0.13901467,0,0,0.12765213,0,602.66667)" />
      <path
         id="path45"
         d="M 5.6492969,-24.360964 H 21.047734 l -0.539062,2.769293 H 8.3914844 l -1.40625,7.210371 H 18.621953 l -0.539062,2.782055 H 6.4461719 L 4.7469531,-2.7681359 H 17.157109 L 16.618047,0.00115706 H 0.90320313 Z m 0,0"
         style="fill:#345587;fill-opacity:1;fill-rule:nonzero;stroke:none"
         aria-label="E"
         transform="matrix(1.3333333,0,0,1.2243649,1196.0067,436.21733)" />
      <path
         id="path46"
         d="m 8657.63,-1537.74 h 147.73 l -5.02,26.59 H 8683.9 l -13.5,69.2 h 111.85 l -5.29,26.61 h -111.61 l -16.37,84.82 h 119.14 l -5.25,26.57 h -150.68 z"
         style="fill:none;stroke:#345587;stroke-width:20.952;stroke-linecap:butt;stroke-linejoin:miter;stroke-miterlimit:4;stroke-dasharray:none;stroke-opacity:1"
         transform="matrix(0.13901467,0,0,0.12765213,0,602.66667)" />
      <path
         id="path47"
         d="m 15.24707,-22.127663 c -1.804687,0 -3.398437,0.440279 -4.78125,1.314457 -1.3828122,0.877368 -2.5869137,2.214158 -3.6093747,4.007179 -0.65625,1.142174 -1.1572265,2.354538 -1.5,3.63709 -0.336914,1.285743 -0.5039062,2.577868 -0.5039062,3.8795628 0,2.2652051 0.5390625,4.0135606 1.6171875,5.2450664 1.0839843,1.225125 2.6162109,1.8376875 4.5937504,1.8376875 1.787109,0 3.377929,-0.4402793 4.769531,-1.3272187 1.397461,-0.8837491 2.592773,-2.2013965 3.585937,-3.9561328 0.66211,-1.1740782 1.166016,-2.4023936 1.511719,-3.6881372 0.351563,-1.292124 0.527344,-2.581057 0.527344,-3.8668 0,-2.252444 -0.544922,-3.997609 -1.628906,-5.232305 -1.086914,-1.231506 -2.613282,-1.850449 -4.582032,-1.850449 z M 10.969727,0.47334066 c -2.9941411,0 -5.3496098,-0.88374903 -7.0664067,-2.65443746 -1.7109375,-1.7770694 -2.5664062,-4.2049864 -2.5664062,-7.2869414 0,-1.7611168 0.3310547,-3.5605198 0.9960937,-5.3982068 0.6708985,-1.837688 1.5966797,-3.474378 2.7773438,-4.913262 1.3828125,-1.684547 2.9208984,-2.941576 4.6171875,-3.777469 1.6933589,-0.832702 3.5654299,-1.250648 5.6132809,-1.250648 2.982422,0 5.334961,0.880558 7.054688,2.641676 1.716797,1.754736 2.578125,4.147558 2.578125,7.184847 0,1.872782 -0.328125,3.71366 -0.984375,5.5258245 -0.650391,1.8057832 -1.582031,3.4392832 -2.800781,4.9005 -1.400391,1.7036894 -2.938477,2.9670996 -4.617188,3.79023044 -1.681641,0.82313086 -3.547851,1.23788672 -5.601562,1.23788672 z m 0,0"
         style="fill:#345587;fill-opacity:1;fill-rule:nonzero;stroke:none"
         aria-label="O"
         transform="matrix(1.3333333,0,0,1.2243649,1224.1667,436.21733)" />
      <path
         id="path48"
         d="m 8952.42,-1516.2 c -17.43,0 -32.86,4.24 -46.13,12.6 -13.18,8.45 -24.72,21.21 -34.51,38.28 -6.21,11.01 -10.93,22.68 -14.31,35.08 -3.26,12.28 -4.83,24.64 -4.83,37.13 0,21.71 5.14,38.52 15.58,50.43 10.35,11.79 24.96,17.63 43.99,17.63 17.09,0 32.3,-4.25 45.6,-12.81 13.48,-8.53 24.99,-21.22 34.59,-38.07 6.29,-11.1 11.16,-22.93 14.52,-35.29 3.38,-12.37 5.07,-24.77 5.07,-37.13 0,-21.55 -5.29,-38.2 -15.81,-49.98 -10.42,-11.92 -24.99,-17.87 -43.76,-17.87 z m -41.07,216.86 c -28.78,0 -51.33,-8.49 -67.77,-25.47 -16.41,-17.09 -24.62,-40.39 -24.62,-69.89 0,-16.98 3.15,-34.23 9.48,-51.81 6.41,-17.72 15.36,-33.47 26.71,-47.25 13.19,-16.12 27.92,-28.23 44.21,-36.2 16.27,-7.91 34.21,-11.91 53.88,-11.91 28.62,0 51.11,8.4 67.55,25.22 16.56,16.85 24.87,39.82 24.87,68.99 0,17.88 -3.18,35.54 -9.47,52.96 -6.22,17.3 -15.17,32.93 -26.94,46.96 -13.37,16.4 -28.14,28.56 -44.21,36.44 -16.22,7.91 -34.06,11.96 -53.69,11.96 z"
         style="fill:none;stroke:#345587;stroke-width:20.952;stroke-linecap:butt;stroke-linejoin:miter;stroke-miterlimit:4;stroke-dasharray:none;stroke-opacity:1"
         transform="matrix(0.13901467,0,0,0.12765213,0,602.66667)" />
      <path
         id="path49"
         d="m 8.4253516,-21.65548 -1.6640625,8.652446 h 4.2421879 c 1.664062,0 3.005859,-0.459422 4.03125,-1.378266 1.03125,-0.918844 1.546875,-2.118445 1.546875,-3.598805 0,-1.19003 -0.348633,-2.099302 -1.042969,-2.731007 -0.688477,-0.628515 -1.681641,-0.944368 -2.976563,-0.944368 z m 6.0468754,9.954141 c 0.694336,0.162712 1.271484,0.567896 1.734375,1.212363 0.46875,0.6380862 1.007812,1.9142581 1.617187,3.8285159 l 2.074219,6.66161716 H 16.417539 L 14.507383,-6.2520851 C 14.015195,-7.8600617 13.446836,-8.9352365 12.808164,-9.4808 12.166563,-10.023173 11.182188,-10.29755 9.8550391,-10.29755 H 6.2222266 L 4.2066016,0.00115706 H 0.90191406 L 5.6480078,-24.360964 h 7.4179692 c 2.255859,0 3.984375,0.510469 5.179687,1.531406 1.201172,1.014557 1.804688,2.475774 1.804688,4.390031 0,1.694119 -0.512696,3.161716 -1.535157,4.402793 -1.016601,1.244268 -2.364257,2.022733 -4.042968,2.335395 z m 0,0"
         style="fill:#345587;fill-opacity:1;fill-rule:nonzero;stroke:none"
         aria-label="R"
         transform="matrix(1.3333333,0,0,1.2243649,1259.2467,436.21733)" />
      <path
         id="path50"
         d="m 9139.26,-1511.59 -16,82.95 h 40.58 c 16.04,0 28.92,-4.42 38.78,-13.31 9.93,-8.81 14.94,-20.4 14.94,-34.59 0,-11.31 -3.37,-19.96 -10.11,-25.92 -6.67,-6.03 -16.11,-9.13 -28.47,-9.13 z m 58.07,95.35 c 6.59,1.55 12.07,5.43 16.41,11.67 4.43,6.12 9.71,18.36 15.59,36.68 l 20.01,63.94 h -33.47 l -18.32,-60.07 c -4.64,-15.38 -10.04,-25.7 -16.22,-30.92 -6.18,-5.19 -15.66,-7.8 -28.4,-7.8 h -34.96 l -19.14,98.79 h -31.76 l 45.48,-233.79 h 71.33 c 21.58,0 38.14,4.92 49.64,14.64 11.51,9.83 17.28,23.86 17.28,42.18 0,16.41 -4.95,30.49 -14.73,42.44 -9.81,11.79 -22.74,19.18 -38.74,22.24 z"
         style="fill:none;stroke:#345587;stroke-width:20.952;stroke-linecap:butt;stroke-linejoin:miter;stroke-miterlimit:4;stroke-dasharray:none;stroke-opacity:1"
         transform="matrix(0.13901467,0,0,0.12765213,0,602.66667)" />
      <path
         id="path51"
         d="m 15.245297,-22.127663 c -1.804688,0 -3.398438,0.440279 -4.78125,1.314457 -1.3828126,0.877368 -2.5869142,2.214158 -3.6093751,4.007179 -0.65625,1.142174 -1.1572266,2.354538 -1.5,3.63709 -0.3369141,1.285743 -0.5039063,2.577868 -0.5039063,3.8795628 0,2.2652051 0.5390625,4.0135606 1.6171875,5.2450664 1.0839844,1.225125 2.616211,1.8376875 4.5937499,1.8376875 1.78711,0 3.37793,-0.4402793 4.769531,-1.3272187 1.397461,-0.8837491 2.592774,-2.2013965 3.585938,-3.9561328 0.662109,-1.1740782 1.166016,-2.4023936 1.511719,-3.6881372 0.351562,-1.292124 0.527343,-2.581057 0.527343,-3.8668 0,-2.252444 -0.544921,-3.997609 -1.628906,-5.232305 -1.086914,-1.231506 -2.613281,-1.850449 -4.582031,-1.850449 z M 10.967953,0.47334066 c -2.9941405,0 -5.3496092,-0.88374903 -7.0664061,-2.65443746 -1.7109375,-1.7770694 -2.5664063,-4.2049864 -2.5664063,-7.2869414 0,-1.7611168 0.3310547,-3.5605198 0.9960938,-5.3982068 0.6708984,-1.837688 1.5966797,-3.474378 2.7773437,-4.913262 1.3828125,-1.684547 2.9208985,-2.941576 4.6171875,-3.777469 1.6933594,-0.832702 3.5654294,-1.250648 5.6132814,-1.250648 2.982422,0 5.334961,0.880558 7.054687,2.641676 1.716797,1.754736 2.578125,4.147558 2.578125,7.184847 0,1.872782 -0.328125,3.71366 -0.984375,5.5258245 -0.65039,1.8057832 -1.582031,3.4392832 -2.800781,4.9005 -1.40039,1.7036894 -2.938476,2.9670996 -4.617187,3.79023044 -1.681641,0.82313086 -3.547852,1.23788672 -5.601563,1.23788672 z m 0,0"
         style="fill:#345587;fill-opacity:1;fill-rule:nonzero;stroke:none"
         aria-label="O"
         transform="matrix(1.3333333,0,0,1.2243649,1290.212,436.21733)" />
      <path
         id="path52"
         d="m 9427.49,-1516.2 c -17.42,0 -32.79,4.24 -46.09,12.6 -13.26,8.45 -24.73,21.21 -34.5,38.28 -6.22,11.01 -10.94,22.68 -14.32,35.08 -3.25,12.28 -4.86,24.64 -4.86,37.13 0,21.71 5.17,38.52 15.58,50.43 10.38,11.79 25.06,17.63 43.99,17.63 17.12,0 32.33,-4.25 45.66,-12.81 13.5,-8.53 24.92,-21.22 34.55,-38.07 6.29,-11.1 11.09,-22.93 14.5,-35.29 3.37,-12.37 5.06,-24.77 5.06,-37.13 0,-21.55 -5.25,-38.2 -15.78,-49.98 -10.42,-11.92 -24.99,-17.87 -43.79,-17.87 z m -41.03,216.86 c -28.77,0 -51.37,-8.49 -67.78,-25.47 -16.41,-17.09 -24.69,-40.39 -24.69,-69.89 0,-16.98 3.23,-34.23 9.52,-51.81 6.44,-17.72 15.36,-33.47 26.75,-47.25 13.15,-16.12 27.88,-28.23 44.21,-36.2 16.26,-7.91 34.21,-11.91 53.88,-11.91 28.62,0 51.14,8.4 67.55,25.22 16.52,16.85 24.84,39.82 24.84,68.99 0,17.88 -3.15,35.54 -9.52,52.96 -6.22,17.3 -15.18,32.93 -26.89,46.96 -13.38,16.4 -28.15,28.56 -44.18,36.44 -16.15,7.91 -34.05,11.96 -53.69,11.96 z"
         style="fill:none;stroke:#345587;stroke-width:20.952;stroke-linecap:butt;stroke-linejoin:miter;stroke-miterlimit:4;stroke-dasharray:none;stroke-opacity:1"
         transform="matrix(0.13901467,0,0,0.12765213,0,602.66667)" />
      <path
         id="path53"
         d="M 5.6130078,-24.360964 H 8.9294141 L 4.7458203,-2.7426125 H 16.616914 L 16.077852,0.00115706 H 0.90207031 Z m 0,0"
         style="fill:#345587;fill-opacity:1;fill-rule:nonzero;stroke:none"
         aria-label="L"
         transform="matrix(1.3333333,0,0,1.2243649,1325.2933,436.21733)" />
      <path
         id="path54"
         d="m 9587.43,-1537.74 h 31.77 l -40.2,207.43 h 113.86 l -5.25,26.36 h -145.44 z"
         style="fill:none;stroke:#345587;stroke-width:20.952;stroke-linecap:butt;stroke-linejoin:miter;stroke-miterlimit:4;stroke-dasharray:none;stroke-opacity:1"
         transform="matrix(0.13901467,0,0,0.12765213,0,602.66667)" />
      <path
         id="path55"
         d="m 15.245664,-22.127663 c -1.804687,0 -3.398437,0.440279 -4.78125,1.314457 -1.3828124,0.877368 -2.586914,2.214158 -3.6093749,4.007179 -0.65625,1.142174 -1.1572266,2.354538 -1.5,3.63709 -0.3369141,1.285743 -0.5039063,2.577868 -0.5039063,3.8795628 0,2.2652051 0.5390625,4.0135606 1.6171875,5.2450664 1.0839844,1.225125 2.616211,1.8376875 4.5937497,1.8376875 1.78711,0 3.37793,-0.4402793 4.769532,-1.3272187 1.397461,-0.8837491 2.592773,-2.2013965 3.585937,-3.9561328 0.662109,-1.1740782 1.166016,-2.4023936 1.511719,-3.6881372 0.351562,-1.292124 0.527344,-2.581057 0.527344,-3.8668 0,-2.252444 -0.544922,-3.997609 -1.628907,-5.232305 -1.086914,-1.231506 -2.613281,-1.850449 -4.582031,-1.850449 z M 10.96832,0.47334066 c -2.9941403,0 -5.3496091,-0.88374903 -7.0664059,-2.65443746 -1.7109375,-1.7770694 -2.5664063,-4.2049864 -2.5664063,-7.2869414 0,-1.7611168 0.3310547,-3.5605198 0.9960938,-5.3982068 0.6708984,-1.837688 1.5966797,-3.474378 2.7773437,-4.913262 1.3828125,-1.684547 2.9208985,-2.941576 4.6171875,-3.777469 1.6933592,-0.832702 3.5654302,-1.250648 5.6132812,-1.250648 2.982422,0 5.334961,0.880558 7.054688,2.641676 1.716796,1.754736 2.578125,4.147558 2.578125,7.184847 0,1.872782 -0.328125,3.71366 -0.984375,5.5258245 -0.650391,1.8057832 -1.582032,3.4392832 -2.800782,4.9005 -1.40039,1.7036894 -2.938476,2.9670996 -4.617187,3.79023044 -1.681641,0.82313086 -3.547852,1.23788672 -5.601563,1.23788672 z m 0,0"
         style="fill:#345587;fill-opacity:1;fill-rule:nonzero;stroke:none"
         aria-label="O"
         transform="matrix(1.3333333,0,0,1.2243649,1348.7467,436.21733)" />
      <path
         id="path56"
         d="m 9848.56,-1516.2 c -17.41,0 -32.78,4.24 -46.11,12.6 -13.19,8.45 -24.69,21.21 -34.51,38.28 -6.18,11.01 -10.94,22.68 -14.31,35.08 -3.26,12.28 -4.84,24.64 -4.84,37.13 0,21.71 5.18,38.52 15.59,50.43 10.38,11.79 25.02,17.63 43.99,17.63 17.08,0 32.29,-4.25 45.67,-12.81 13.48,-8.53 24.95,-21.22 34.5,-38.07 6.33,-11.1 11.16,-22.93 14.54,-35.29 3.3,-12.37 4.98,-24.77 4.98,-37.13 0,-21.55 -5.17,-38.2 -15.77,-49.98 -10.34,-11.92 -24.92,-17.87 -43.73,-17.87 z m -41.06,216.86 c -28.77,0 -51.32,-8.49 -67.73,-25.47 -16.45,-17.09 -24.66,-40.39 -24.66,-69.89 0,-16.98 3.15,-34.23 9.49,-51.81 6.39,-17.72 15.35,-33.47 26.71,-47.25 13.19,-16.12 27.91,-28.23 44.2,-36.2 16.26,-7.91 34.21,-11.91 53.88,-11.91 28.63,0 51.18,8.4 67.59,25.22 16.53,16.85 24.84,39.82 24.84,68.99 0,17.88 -3.18,35.54 -9.48,52.96 -6.22,17.3 -15.17,32.93 -26.94,46.96 -13.37,16.4 -28.1,28.56 -44.2,36.44 -16.15,7.91 -34.06,11.96 -53.7,11.96 z"
         style="fill:none;stroke:#345587;stroke-width:20.952;stroke-linecap:butt;stroke-linejoin:miter;stroke-miterlimit:4;stroke-dasharray:none;stroke-opacity:1"
         transform="matrix(0.13901467,0,0,0.12765213,0,602.66667)" />
      <path
         id="path57"
         d="m 18.247188,-3.6359328 1.277343,-6.3808592 H 14.09875 l 0.503906,-2.705485 h 8.648438 l -2.097656,10.7198442 c -1.447266,0.7912266 -3.023438,1.40378908 -4.734375,1.83768752 -1.710938,0.42432715 -3.430665,0.63808594 -5.15625,0.63808594 -3.0556646,0 -5.4462896,-0.84546387 -7.1718755,-2.53958206 -1.7285156,-1.700499 -2.5898437,-4.061417 -2.5898437,-7.0827539 0,-2.5172487 0.5214843,-4.9068807 1.5703125,-7.1720857 1.0546875,-2.271586 2.5078125,-4.163511 4.359375,-5.678965 1.1630859,-0.944367 2.4316406,-1.646262 3.8085937,-2.105684 1.382813,-0.465802 2.917969,-0.701894 4.605469,-0.701894 1.523437,0 2.982422,0.197806 4.382812,0.587039 1.397461,0.382851 2.733399,0.96351 4.007813,1.735594 l -0.667969,3.509472 c -0.978516,-1.020937 -2.126953,-1.799402 -3.445312,-2.335394 -1.3125,-0.542373 -2.715821,-0.81675 -4.207032,-0.81675 -1.734375,0 -3.263672,0.331804 -4.582031,0.995414 -1.3125,0.657228 -2.484375,1.671785 -3.515625,3.050051 -0.8847656,1.174078 -1.5791016,2.561915 -2.0859375,4.16032 -0.5009766,1.592024 -0.75,3.212763 -0.75,4.8622148 0,2.2811572 0.5800781,3.9944179 1.7460938,5.1429726 1.1630859,1.1421738 2.8974609,1.7100703 5.2031247,1.7100703 1.154297,0 2.267578,-0.1180459 3.339844,-0.3573281 1.078125,-0.2456631 2.068359,-0.6029912 2.976563,-1.0719844 z m 0,0"
         style="fill:#345587;fill-opacity:1;fill-rule:nonzero;stroke:none"
         aria-label="G"
         transform="matrix(1.3333333,0,0,1.2243649,1383.8267,436.21733)" />
      <path
         id="path58"
         d="m 10129.6,-1338.8 12.2,-61.17 h -51.8 l 4.8,-26.14 h 82.9 l -20.2,102.89 c -13.8,7.71 -29,13.55 -45.4,17.67 -16.4,4.13 -33,6.21 -49.5,6.21 -29.4,0 -52.3,-8.09 -68.81,-24.33 -16.57,-16.31 -24.84,-39.01 -24.84,-68.1 0,-24.11 5.05,-46.99 15.17,-68.7 10.12,-21.87 23.98,-40.02 41.68,-54.59 11.2,-8.98 23.4,-15.71 36.5,-20.16 13.4,-4.41 28.1,-6.65 44.3,-6.65 14.6,0 28.5,1.84 41.9,5.5 13.5,3.68 26.3,9.31 38.5,16.73 l -6.3,33.71 c -9.4,-9.91 -20.4,-17.42 -33,-22.49 -12.7,-5.14 -26.2,-7.78 -40.5,-7.78 -16.5,0 -31.1,3.13 -43.7,9.38 -12.7,6.33 -24,16.07 -33.9,29.34 -8.4,11.38 -15.1,24.68 -20,39.9 -4.8,15.29 -7.2,30.88 -7.2,46.76 0,21.86 5.6,38.26 16.6,49.28 11.3,11.02 28,16.49 50.1,16.49 11,0 21.6,-1.15 32,-3.43 10.4,-2.41 19.9,-5.83 28.5,-10.32 z"
         style="fill:none;stroke:#345587;stroke-width:20.952;stroke-linecap:butt;stroke-linejoin:miter;stroke-miterlimit:4;stroke-dasharray:none;stroke-opacity:1"
         transform="matrix(0.13901467,0,0,0.12765213,0,602.66667)" />
      <path
         id="path59"
         d="M 5.6479688,-24.360964 H 8.964375 L 4.2065625,0.00115706 H 0.901875 Z m 0,0"
         style="fill:#345587;fill-opacity:1;fill-rule:nonzero;stroke:none"
         aria-label="I"
         transform="matrix(1.3333333,0,0,1.2243649,1418.36,436.21733)" />
      <path
         id="path60"
         d="m 10257.1,-1537.74 h 31.8 l -45.4,233.79 h -31.8 z"
         style="fill:none;stroke:#345587;stroke-width:20.952;stroke-linecap:butt;stroke-linejoin:miter;stroke-miterlimit:4;stroke-dasharray:none;stroke-opacity:1"
         transform="matrix(0.13901467,0,0,0.12765213,0,602.66667)" />
      <path
         id="path61"
         d="m 12.317266,-24.360964 h 3.738281 L 20.578984,0.00115706 H 17.133672 L 16.114141,-6.2520851 H 5.1571094 L 1.7117969,0.00115706 h -3.4804688 z m 1.195312,3.241477 -6.8437499,12.1236323 h 8.9414059 z m 0,0"
         style="fill:#345587;fill-opacity:1;fill-rule:nonzero;stroke:none"
         aria-label="A"
         transform="matrix(1.3333333,0,0,1.2243649,1431.5067,436.21733)" />
      <path
         id="path62"
         d="m 10415.7,-1537.74 h 35.8 l 43.4,233.79 h -33.1 l -9.7,-60.07 h -105.2 l -33.1,60.07 h -33.2 z m 11.4,31.17 -65.7,116.44 h 85.9 z"
         style="fill:none;stroke:#345587;stroke-width:20.952;stroke-linecap:butt;stroke-linejoin:miter;stroke-miterlimit:4;stroke-dasharray:none;stroke-opacity:1"
         transform="matrix(0.13901467,0,0,0.12765213,0,602.66667)" />
      <path
         id="path63"
         d="M 5.6471719,-24.361713 H 21.045609 l -0.539062,2.769293 H 8.3893594 l -1.40625,7.210371 H 18.619828 l -0.539062,2.782055 H 6.4440469 L 4.7448281,-2.7688846 H 17.154984 L 16.615922,4.08375e-4 H 0.90107813 Z m 0,0"
         style="fill:#345587;fill-opacity:1;fill-rule:nonzero;stroke:none"
         aria-label="E"
         transform="matrix(1.3333333,0,0,1.2243649,551.572,483.812)" />
      <path
         id="path64"
         d="m 4021.83,-1164.86 h 147.78 l -5.06,26.59 h -116.38 l -13.48,69.21 h 111.76 l -5.28,26.59 h -111.54 l -16.41,84.789 h 119.15 l -5.29,26.607 h -150.69 z"
         style="fill:none;stroke:#345587;stroke-width:20.952;stroke-linecap:butt;stroke-linejoin:miter;stroke-miterlimit:4;stroke-dasharray:none;stroke-opacity:1"
         transform="matrix(0.13901467,0,0,0.12765213,0,602.66667)" />
      <path
         id="path65"
         d="m 5.6471953,-24.361713 h 3.3164063 l -1.9453125,9.979664 H 18.983133 l 1.933594,-9.979664 h 3.316406 L 19.487039,4.08375e-4 H 16.170633 L 18.44407,-11.599994 H 6.4792266 L 4.2057891,4.08375e-4 H 0.90110156 Z m 0,0"
         style="fill:#345587;fill-opacity:1;fill-rule:nonzero;stroke:none"
         aria-label="H"
         transform="matrix(1.3333333,0,0,1.2243649,593.904,483.812)" />
      <path
         id="path66"
         d="m 4326.28,-1164.86 h 31.78 l -18.51,95.8 h 114.72 l 18.51,-95.8 h 31.77 l -45.45,233.786 h -31.76 l 21.68,-111.396 h -114.68 l -21.72,111.396 h -31.78 z"
         style="fill:none;stroke:#345587;stroke-width:20.952;stroke-linecap:butt;stroke-linejoin:miter;stroke-miterlimit:4;stroke-dasharray:none;stroke-opacity:1"
         transform="matrix(0.13901467,0,0,0.12765213,0,602.66667)" />
      <path
         id="path67"
         d="M 5.6480547,-24.361713 H 8.9644609 L 4.2066484,4.08375e-4 H 0.90196094 Z m 0,0"
         style="fill:#345587;fill-opacity:1;fill-rule:nonzero;stroke:none"
         aria-label="I"
         transform="matrix(1.3333333,0,0,1.2243649,627.41067,483.812)" />
      <path
         id="path68"
         d="m 4567.38,-1164.86 h 31.81 l -45.49,233.786 h -31.77 z"
         style="fill:none;stroke:#345587;stroke-width:20.952;stroke-linecap:butt;stroke-linejoin:miter;stroke-miterlimit:4;stroke-dasharray:none;stroke-opacity:1"
         transform="matrix(0.13901467,0,0,0.12765213,0,602.66667)" />
      <path
         id="path69"
         d="m 5.6484531,-24.361713 h 7.0781249 c 3.764649,0 6.609375,0.797608 8.53125,2.386442 1.921875,1.592024 2.882813,3.962513 2.882813,7.108277 0,2.07697 -0.369141,4.077369 -1.101563,5.9980078 -0.726562,1.9238291 -1.731445,3.541377 -3.011719,4.8494532 -1.297851,1.3527422 -2.941406,2.3609179 -4.933593,3.02452731 C 13.101578,-0.33139631 10.746109,4.08375e-4 8.0273594,4.08375e-4 H 0.90235938 Z m 2.7773438,2.705485 -3.6796875,18.951152 h 4.3125 c 3.6855466,0 6.5419926,-1.0592227 8.5664066,-3.177668 2.021484,-2.1248261 3.035156,-5.12064 3.035156,-8.98425 0,-2.338585 -0.65332,-4.051846 -1.957031,-5.142973 -1.306641,-1.097507 -3.351563,-1.646261 -6.140625,-1.646261 z m 0,0"
         style="fill:#345587;fill-opacity:1;fill-rule:nonzero;stroke:none"
         aria-label="D"
         transform="matrix(1.3333333,0,0,1.2243649,640.55467,483.812)" />
      <path
         id="path70"
         d="m 4661.91,-1164.86 h 67.97 c 36.07,0 63.23,7.66 81.66,22.92 18.55,15.31 27.81,38.03 27.81,68.3 0,19.87 -3.52,39.09 -10.53,57.53 -7.04,18.318 -16.75,33.867 -29.07,46.515 -12.29,13.016 -28.07,22.723 -47.13,29.128 -19.11,6.284 -41.67,9.393 -67.79,9.393 h -68.37 z m 26.71,26.1 -35.29,181.769 h 41.4 c 35.4,0 62.76,-10.119 82.09,-30.47 19.37,-20.439 29.1,-49.169 29.1,-86.179 0,-22.48 -6.29,-38.84 -18.77,-49.28 -12.54,-10.53 -32.1,-15.84 -58.66,-15.84 z"
         style="fill:none;stroke:#345587;stroke-width:20.952;stroke-linecap:butt;stroke-linejoin:miter;stroke-miterlimit:4;stroke-dasharray:none;stroke-opacity:1"
         transform="matrix(0.13901467,0,0,0.12765213,0,602.66667)" />
      <path
         id="path71"
         d="m 8.4270313,-21.656228 -1.6640625,8.652445 h 4.2421872 c 1.664063,0 3.00586,-0.459422 4.03125,-1.378266 1.03125,-0.918843 1.546875,-2.118445 1.546875,-3.598804 0,-1.190031 -0.348633,-2.099303 -1.042968,-2.731008 -0.688477,-0.628515 -1.681641,-0.944367 -2.976563,-0.944367 z m 6.0468747,9.95414 c 0.694336,0.162712 1.271485,0.567897 1.734375,1.212364 0.46875,0.6380855 1.007813,1.9142574 1.617188,3.8285152 L 19.899688,4.08375e-4 H 16.419219 L 14.509063,-6.2528338 C 14.016875,-7.8608104 13.448516,-8.9359852 12.809844,-9.4815487 12.168242,-10.023922 11.183867,-10.298299 9.8567188,-10.298299 H 6.2239063 L 4.2082813,4.08375e-4 H 0.90359375 L 5.6496875,-24.361713 h 7.4179685 c 2.25586,0 3.984375,0.510469 5.179688,1.531407 1.201172,1.014556 1.804687,2.475773 1.804687,4.390031 0,1.694118 -0.512695,3.161716 -1.535156,4.402793 -1.016602,1.244267 -2.364258,2.022732 -4.042969,2.335394 z m 0,0"
         style="fill:#345587;fill-opacity:1;fill-rule:nonzero;stroke:none"
         aria-label="R"
         transform="matrix(1.3333333,0,0,1.2243649,674.87333,483.812)" />
      <path
         id="path72"
         d="m 4935.52,-1138.76 -15.99,83 h 40.64 c 15.96,0 28.85,-4.41 38.71,-13.3 9.93,-8.82 14.95,-20.4 14.95,-34.61 0,-11.3 -3.37,-19.95 -10.12,-25.91 -6.63,-6.08 -16.03,-9.18 -28.4,-9.18 z m 58.08,95.36 c 6.59,1.55 12.13,5.47 16.45,11.7 4.45,6.13 9.66,18.32 15.55,36.691 l 20,63.935 h -33.46 l -18.24,-60.063 c -4.68,-15.423 -10.12,-25.703 -16.22,-30.933 -6.23,-5.14 -15.74,-7.79 -28.48,-7.79 h -34.92 l -19.15,98.786 h -31.8 l 45.44,-233.786 h 71.37 c 21.62,0 38.15,4.92 49.69,14.68 11.46,9.79 17.27,23.82 17.27,42.14 0,16.41 -4.95,30.49 -14.76,42.44 -9.79,11.8 -22.68,19.18 -38.74,22.2 z"
         style="fill:none;stroke:#345587;stroke-width:20.952;stroke-linecap:butt;stroke-linejoin:miter;stroke-miterlimit:4;stroke-dasharray:none;stroke-opacity:1"
         transform="matrix(0.13901467,0,0,0.12765213,0,602.66667)" />
      <path
         id="path73"
         d="m 15.246977,-22.128412 c -1.804688,0 -3.398438,0.440279 -4.78125,1.314457 -1.3828129,0.877368 -2.5869145,2.214158 -3.6093754,4.00718 -0.65625,1.142174 -1.1572266,2.354537 -1.5,3.63709 -0.3369141,1.285743 -0.5039063,2.577867 -0.5039063,3.8795621 0,2.2652051 0.5390625,4.0135606 1.6171875,5.2450664 1.0839844,1.225125 2.6162109,1.8376875 4.5937502,1.8376875 1.787109,0 3.377929,-0.4402793 4.769531,-1.3272187 1.397461,-0.883749 2.592773,-2.2013965 3.585938,-3.9561328 0.662109,-1.1740782 1.166015,-2.4023936 1.511718,-3.6881365 0.351563,-1.292124 0.527344,-2.581058 0.527344,-3.866801 0,-2.252443 -0.544922,-3.997608 -1.628906,-5.232305 -1.086914,-1.231506 -2.613281,-1.850449 -4.582031,-1.850449 z M 10.969633,0.47259197 c -2.9941408,0 -5.3496096,-0.88374902 -7.0664064,-2.65443747 -1.7109375,-1.7770694 -2.5664063,-4.2049864 -2.5664063,-7.2869414 0,-1.7611171 0.3310547,-3.5605191 0.9960938,-5.3982071 0.6708984,-1.837687 1.5966796,-3.474378 2.7773437,-4.913262 1.3828125,-1.684547 2.9208984,-2.941576 4.6171875,-3.777468 1.6933597,-0.832703 3.5654297,-1.250649 5.6132817,-1.250649 2.982421,0 5.33496,0.880559 7.054687,2.641676 1.716797,1.754736 2.578125,4.147559 2.578125,7.184848 0,1.872782 -0.328125,3.71366 -0.984375,5.5258238 -0.650391,1.8057832 -1.582031,3.4392832 -2.800781,4.9005 -1.400391,1.7036894 -2.938477,2.9670996 -4.617188,3.79023045 -1.68164,0.82313086 -3.547851,1.23788672 -5.601562,1.23788672 z m 0,0"
         style="fill:#345587;fill-opacity:1;fill-rule:nonzero;stroke:none"
         aria-label="O"
         transform="matrix(1.3333333,0,0,1.2243649,705.83867,483.812)" />
      <path
         id="path74"
         d="m 5223.71,-1143.32 c -17.42,0 -32.7,4.24 -46.08,12.6 -13.19,8.4 -24.73,21.22 -34.5,38.27 -6.23,11.02 -10.98,22.69 -14.32,35.1 -3.25,12.23 -4.84,24.6 -4.84,37.13 0,21.698 5.14,38.463 15.56,50.426 10.38,11.787 25.06,17.617 43.99,17.617 17.12,0 32.33,-4.239 45.66,-12.852 13.49,-8.527 24.96,-21.167 34.55,-38.021 6.37,-11.1 11.12,-22.93 14.49,-35.29 3.38,-12.37 5.07,-24.77 5.07,-37.13 0,-21.55 -5.29,-38.15 -15.78,-49.98 -10.42,-11.91 -24.99,-17.87 -43.8,-17.87 z m -41.02,216.811 c -28.77,0 -51.33,-8.441 -67.78,-25.419 -16.41,-17.091 -24.61,-40.389 -24.61,-69.892 0,-16.97 3.14,-34.23 9.44,-51.82 6.48,-17.7 15.43,-33.45 26.75,-47.2 13.14,-16.2 27.94,-28.27 44.21,-36.24 16.3,-7.91 34.2,-11.91 53.92,-11.91 28.65,0 51.1,8.41 67.51,25.22 16.51,16.85 24.84,39.82 24.84,68.99 0,17.88 -3.12,35.5 -9.49,52.96 -6.17,17.3 -15.13,32.931 -26.93,46.962 -13.38,16.402 -28.1,28.524 -44.14,36.435 -16.22,7.916 -34.09,11.914 -53.72,11.914 z"
         style="fill:none;stroke:#345587;stroke-width:20.952;stroke-linecap:butt;stroke-linejoin:miter;stroke-miterlimit:4;stroke-dasharray:none;stroke-opacity:1"
         transform="matrix(0.13901467,0,0,0.12765213,0,602.66667)" />
      <path
         id="path75"
         d="M 5.6127578,-24.361713 H 8.9291641 L 4.7455703,-2.7433612 H 16.616664 L 16.077602,4.08375e-4 H 0.90182031 Z m 0,0"
         style="fill:#345587;fill-opacity:1;fill-rule:nonzero;stroke:none"
         aria-label="L"
         transform="matrix(1.3333333,0,0,1.2243649,740.91867,483.812)" />
      <path
         id="path76"
         d="m 5383.7,-1164.86 h 31.76 l -40.19,207.428 h 113.86 l -5.25,26.358 h -145.44 z"
         style="fill:none;stroke:#345587;stroke-width:20.952;stroke-linecap:butt;stroke-linejoin:miter;stroke-miterlimit:4;stroke-dasharray:none;stroke-opacity:1"
         transform="matrix(0.13901467,0,0,0.12765213,0,602.66667)" />
      <path
         id="path77"
         d="m 15.246273,-22.128412 c -1.804687,0 -3.398437,0.440279 -4.78125,1.314457 -1.3828121,0.877368 -2.5869136,2.214158 -3.6093746,4.00718 -0.65625,1.142174 -1.1572265,2.354537 -1.5,3.63709 -0.336914,1.285743 -0.5039062,2.577867 -0.5039062,3.8795621 0,2.2652051 0.5390625,4.0135606 1.6171875,5.2450664 1.0839844,1.225125 2.6162109,1.8376875 4.5937503,1.8376875 1.787109,0 3.377929,-0.4402793 4.769531,-1.3272187 1.397461,-0.883749 2.592773,-2.2013965 3.585937,-3.9561328 0.66211,-1.1740782 1.166016,-2.4023936 1.511719,-3.6881365 0.351563,-1.292124 0.527344,-2.581058 0.527344,-3.866801 0,-2.252443 -0.544922,-3.997608 -1.628906,-5.232305 -1.086914,-1.231506 -2.613282,-1.850449 -4.582032,-1.850449 z M 10.96893,0.47259197 c -2.9941409,0 -5.3496097,-0.88374902 -7.0664066,-2.65443747 -1.7109375,-1.7770694 -2.5664062,-4.2049864 -2.5664062,-7.2869414 0,-1.7611171 0.3310547,-3.5605191 0.9960937,-5.3982071 0.6708985,-1.837687 1.5966797,-3.474378 2.7773438,-4.913262 1.3828125,-1.684547 2.9208984,-2.941576 4.6171875,-3.777468 1.6933598,-0.832703 3.5654298,-1.250649 5.6132808,-1.250649 2.982422,0 5.334961,0.880559 7.054688,2.641676 1.716797,1.754736 2.578125,4.147559 2.578125,7.184848 0,1.872782 -0.328125,3.71366 -0.984375,5.5258238 -0.650391,1.8057832 -1.582031,3.4392832 -2.800781,4.9005 -1.400391,1.7036894 -2.938477,2.9670996 -4.617188,3.79023045 -1.68164,0.82313086 -3.547851,1.23788672 -5.601562,1.23788672 z m 0,0"
         style="fill:#345587;fill-opacity:1;fill-rule:nonzero;stroke:none"
         aria-label="O"
         transform="matrix(1.3333333,0,0,1.2243649,764.37867,483.812)" />
      <path
         id="path78"
         d="m 5644.91,-1143.32 c -17.5,0 -32.86,4.24 -46.17,12.6 -13.21,8.4 -24.69,21.22 -34.54,38.27 -6.18,11.02 -10.94,22.69 -14.27,35.1 -3.22,12.23 -4.87,24.6 -4.87,37.13 0,21.698 5.17,38.463 15.59,50.426 10.38,11.787 25.02,17.617 43.98,17.617 17.12,0 32.38,-4.239 45.67,-12.852 13.49,-8.527 24.95,-21.167 34.55,-38.021 6.29,-11.1 11.2,-22.93 14.5,-35.29 3.36,-12.37 5.05,-24.77 5.05,-37.13 0,-21.55 -5.25,-38.15 -15.77,-49.98 -10.45,-11.91 -24.99,-17.87 -43.72,-17.87 z m -41.1,216.811 c -28.82,0 -51.34,-8.441 -67.75,-25.419 -16.41,-17.091 -24.68,-40.389 -24.68,-69.892 0,-16.97 3.18,-34.23 9.55,-51.82 6.33,-17.7 15.29,-33.45 26.67,-47.2 13.23,-16.2 27.89,-28.27 44.22,-36.24 16.22,-7.91 34.16,-11.91 53.84,-11.91 28.62,0 51.17,8.41 67.58,25.22 16.57,16.85 24.92,39.82 24.92,68.99 0,17.88 -3.26,35.5 -9.48,52.96 -6.29,17.3 -15.21,32.931 -27.01,46.962 -13.38,16.402 -28.06,28.524 -44.21,36.435 -16.15,7.916 -34.02,11.914 -53.65,11.914 z"
         style="fill:none;stroke:#345587;stroke-width:20.952;stroke-linecap:butt;stroke-linejoin:miter;stroke-miterlimit:4;stroke-dasharray:none;stroke-opacity:1"
         transform="matrix(0.13901467,0,0,0.12765213,0,602.66667)" />
      <path
         id="path79"
         d="m 18.246867,-3.6366815 1.277344,-6.3808595 H 14.09843 l 0.503906,-2.705484 h 8.648437 l -2.097656,10.7198435 c -1.447265,0.7912266 -3.023437,1.40378909 -4.734375,1.83768753 -1.710937,0.42432715 -3.430664,0.63808594 -5.15625,0.63808594 -3.0556639,0 -5.4462889,-0.84546387 -7.1718748,-2.53958207 -1.7285156,-1.700499 -2.5898438,-4.061417 -2.5898438,-7.0827539 0,-2.517249 0.5214844,-4.906881 1.5703125,-7.172086 1.0546875,-2.271586 2.5078125,-4.163511 4.359375,-5.678965 1.163086,-0.944367 2.4316407,-1.646261 3.8085941,-2.105683 1.382812,-0.465803 2.917968,-0.701895 4.605468,-0.701895 1.523438,0 2.982422,0.197807 4.382813,0.587039 1.397461,0.382852 2.733398,0.96351 4.007812,1.735594 l -0.667968,3.509473 c -0.978516,-1.020938 -2.126953,-1.799403 -3.445313,-2.335395 -1.3125,-0.542373 -2.71582,-0.81675 -4.207031,-0.81675 -1.734375,0 -3.263672,0.331805 -4.582031,0.995414 -1.3125,0.657229 -2.4843753,1.671785 -3.5156253,3.050051 -0.8847656,1.174078 -1.5791016,2.561915 -2.0859375,4.16032 -0.5009766,1.592025 -0.75,3.212763 -0.75,4.8622151 0,2.2811572 0.5800781,3.9944179 1.7460937,5.1429726 1.163086,1.1421738 2.897461,1.7100703 5.2031251,1.7100703 1.154297,0 2.267578,-0.1180459 3.339844,-0.3573281 1.078125,-0.2456631 2.068359,-0.6029912 2.976562,-1.0719844 z m 0,0"
         style="fill:#345587;fill-opacity:1;fill-rule:nonzero;stroke:none"
         aria-label="G"
         transform="matrix(1.3333333,0,0,1.2243649,799.456,483.812)" />
      <path
         id="path80"
         d="m 5925.83,-965.918 12.25,-61.202 h -51.82 l 4.84,-26.12 h 82.91 l -20.2,102.908 c -13.82,7.67 -28.99,13.501 -45.44,17.666 -16.37,4.113 -32.98,6.157 -49.46,6.157 -29.33,0 -52.27,-8.074 -68.86,-24.276 -16.56,-16.325 -24.84,-39.006 -24.84,-68.065 0,-24.15 5.05,-47.08 15.17,-68.79 10.12,-21.82 24.06,-39.98 41.67,-54.54 11.24,-9.02 23.41,-15.71 36.64,-20.16 13.3,-4.44 28.06,-6.65 44.2,-6.65 14.58,0 28.52,1.83 41.93,5.51 13.49,3.63 26.35,9.27 38.48,16.72 l -6.33,33.67 c -9.36,-9.92 -20.35,-17.38 -33.04,-22.44 -12.64,-5.14 -26.08,-7.79 -40.39,-7.79 -16.61,0 -31.17,3.14 -43.81,9.38 -12.58,6.32 -23.94,16.07 -33.9,29.38 -8.4,11.3 -15.1,24.6 -19.97,39.86 -4.76,15.3 -7.12,30.88 -7.12,46.76 0,21.902 5.47,38.268 16.63,49.288 11.21,10.971 27.85,16.475 50.06,16.475 10.95,0 21.54,-1.142 31.96,-3.423 10.38,-2.407 19.86,-5.83 28.44,-10.318 z"
         style="fill:none;stroke:#345587;stroke-width:20.952;stroke-linecap:butt;stroke-linejoin:miter;stroke-miterlimit:4;stroke-dasharray:none;stroke-opacity:1"
         transform="matrix(0.13901467,0,0,0.12765213,0,602.66667)" />
      <path
         id="path81"
         d="M 5.6475781,-24.361713 H 8.9639844 L 4.2061719,4.08375e-4 H 0.90148437 Z m 0,0"
         style="fill:#345587;fill-opacity:1;fill-rule:nonzero;stroke:none"
         aria-label="I"
         transform="matrix(1.3333333,0,0,1.2243649,833.99333,483.812)" />
      <path
         id="path82"
         d="m 6053.44,-1164.86 h 31.76 l -45.48,233.786 h -31.76 z"
         style="fill:none;stroke:#345587;stroke-width:20.952;stroke-linecap:butt;stroke-linejoin:miter;stroke-miterlimit:4;stroke-dasharray:none;stroke-opacity:1"
         transform="matrix(0.13901467,0,0,0.12765213,0,602.66667)" />
      <path
         id="path83"
         d="m 12.316945,-24.361713 h 3.738282 L 20.578664,4.08375e-4 H 17.133352 L 16.11382,-6.2528338 H 5.1567891 L 1.7114766,4.08375e-4 h -3.4804688 z m 1.195313,3.241477 -6.8437502,12.1236327 h 8.9414062 z m 0,0"
         style="fill:#345587;fill-opacity:1;fill-rule:nonzero;stroke:none"
         aria-label="A"
         transform="matrix(1.3333333,0,0,1.2243649,847.136,483.812)" />
      <path
         id="path84"
         d="m 6211.96,-1164.86 h 35.85 l 43.31,233.786 h -33.04 l -9.63,-60.063 h -105.32 l -33.04,60.063 h -33.24 z m 11.39,31.17 -65.68,116.44 h 85.91 z"
         style="fill:none;stroke:#345587;stroke-width:20.952;stroke-linecap:butt;stroke-linejoin:miter;stroke-miterlimit:4;stroke-dasharray:none;stroke-opacity:1"
         transform="matrix(0.13901467,0,0,0.12765213,0,602.66667)" />
      <path
         id="path85"
         d="m 5.6490938,-24.361713 h 7.0781252 c 3.764648,0 6.609375,0.797608 8.53125,2.386442 1.921875,1.592024 2.882812,3.962513 2.882812,7.108277 0,2.07697 -0.36914,4.077369 -1.101562,5.9980078 -0.726563,1.9238291 -1.731446,3.541377 -3.011719,4.8494532 -1.297852,1.3527422 -2.941406,2.3609179 -4.933594,3.02452731 C 13.102219,-0.33139631 10.74675,4.08375e-4 8.028,4.08375e-4 H 0.903 Z M 8.4264375,-21.656228 4.74675,-2.705076 h 4.3125 c 3.685547,0 6.541992,-1.0592227 8.566406,-3.177668 2.021485,-2.1248261 3.035157,-5.12064 3.035157,-8.98425 0,-2.338585 -0.653321,-4.051846 -1.957032,-5.142973 -1.30664,-1.097507 -3.351562,-1.646261 -6.140625,-1.646261 z m 0,0"
         style="fill:#345587;fill-opacity:1;fill-rule:nonzero;stroke:none"
         aria-label="D"
         transform="matrix(1.3333333,0,0,1.2243649,891.796,483.812)" />
      <path
         id="path86"
         d="m 6469.16,-1164.86 h 68.04 c 36,0 63.2,7.66 81.68,22.92 18.54,15.31 27.79,38.03 27.79,68.3 0,19.87 -3.59,39.09 -10.52,57.53 -7.12,18.318 -16.78,33.867 -29.08,46.515 -12.36,13.016 -28.05,22.723 -47.13,29.128 -19.11,6.284 -41.73,9.393 -67.81,9.393 h -68.42 z m 26.79,26.1 -35.37,181.769 h 41.44 c 35.41,0 62.71,-10.119 82.09,-30.47 19.33,-20.439 29.11,-49.169 29.11,-86.179 0,-22.48 -6.33,-38.84 -18.81,-49.28 -12.52,-10.53 -32.11,-15.84 -58.67,-15.84 z"
         style="fill:none;stroke:#345587;stroke-width:20.952;stroke-linecap:butt;stroke-linejoin:miter;stroke-miterlimit:4;stroke-dasharray:none;stroke-opacity:1"
         transform="matrix(0.13901467,0,0,0.12765213,0,602.66667)" />
      <path
         id="path87"
         d="M 5.6494688,-24.361713 H 21.047906 l -0.539062,2.769293 H 8.3916563 l -1.40625,7.210371 H 18.622125 l -0.539062,2.782055 H 6.4463438 L 4.747125,-2.7688846 H 17.157281 L 16.618219,4.08375e-4 H 0.903375 Z m 0,0"
         style="fill:#345587;fill-opacity:1;fill-rule:nonzero;stroke:none"
         aria-label="E"
         transform="matrix(1.3333333,0,0,1.2243649,926.108,483.812)" />
      <path
         id="path88"
         d="m 6716.07,-1164.86 h 147.8 l -5.1,26.59 h -116.4 l -13.46,69.21 h 111.77 l -5.21,26.59 h -111.61 l -16.38,84.789 h 119.11 l -5.25,26.607 h -150.73 z"
         style="fill:none;stroke:#345587;stroke-width:20.952;stroke-linecap:butt;stroke-linejoin:miter;stroke-miterlimit:4;stroke-dasharray:none;stroke-opacity:1"
         transform="matrix(0.13901467,0,0,0.12765213,0,602.66667)" />
      <path
         id="path89"
         d="M 5.6144297,-24.361713 H 8.9308359 L 4.7472422,-2.7433612 H 16.618336 L 16.079273,4.08375e-4 H 0.90349219 Z m 0,0"
         style="fill:#345587;fill-opacity:1;fill-rule:nonzero;stroke:none"
         aria-label="L"
         transform="matrix(1.3333333,0,0,1.2243649,954.268,483.812)" />
      <path
         id="path90"
         d="m 6918.49,-1164.86 h 31.78 l -40.21,207.428 h 113.9 l -5.32,26.358 h -145.45 z"
         style="fill:none;stroke:#345587;stroke-width:20.952;stroke-linecap:butt;stroke-linejoin:miter;stroke-miterlimit:4;stroke-dasharray:none;stroke-opacity:1"
         transform="matrix(0.13901467,0,0,0.12765213,0,602.66667)" />
      <path
         id="path91"
         d="m 5.6485859,-24.361713 h 7.6171871 c 2.217774,0 3.908204,0.52004 5.074219,1.55693 1.163086,1.030509 1.746094,2.539582 1.746094,4.53041 0,2.67358 -0.861328,4.756931 -2.578125,6.253242 -1.719727,1.489931 -4.133789,2.2333011 -7.242188,2.2333011 H 6.1173359 L 4.2071797,4.08375e-4 H 0.90249219 Z m 2.7773438,2.705485 -1.7695313,9.150152 h 4.1484376 c 1.866211,0 3.298828,-0.475374 4.300781,-1.429312 1.007813,-0.96032 1.511719,-2.329014 1.511719,-4.109274 0,-1.148555 -0.339844,-2.035494 -1.019531,-2.667199 -0.679688,-0.628515 -1.637696,-0.944367 -2.871094,-0.944367 z m 0,0"
         style="fill:#345587;fill-opacity:1;fill-rule:nonzero;stroke:none"
         aria-label="P"
         transform="matrix(1.3333333,0,0,1.2243649,993.26933,483.812)" />
      <path
         id="path92"
         d="m 7199.23,-1164.86 h 73.17 c 21.17,0 37.39,4.97 48.47,14.88 11.17,9.96 16.79,24.49 16.79,43.58 0,25.66 -8.31,45.7 -24.8,60.02 -16.45,14.24 -39.49,21.34 -69.27,21.34 h -39.8 l -18.24,93.966 h -31.81 z m 26.67,26.1 -17.04,87.81 h 39.75 c 18.02,0 31.7,-4.57 41.29,-13.75 9.73,-9.18 14.49,-22.36 14.49,-39.66 0,-10.81 -3.29,-19.26 -9.81,-25.22 -6.49,-6.08 -15.67,-9.18 -27.42,-9.18 z"
         style="fill:none;stroke:#345587;stroke-width:20.952;stroke-linecap:butt;stroke-linejoin:miter;stroke-miterlimit:4;stroke-dasharray:none;stroke-opacity:1"
         transform="matrix(0.13901467,0,0,0.12765213,0,602.66667)" />
      <path
         id="path93"
         d="M 5.6469766,-24.361713 H 21.045414 l -0.539062,2.769293 H 8.3891641 l -1.40625,7.210371 H 18.619633 l -0.539063,2.782055 H 6.4438516 L 4.7446328,-2.7688846 H 17.154789 L 16.615727,4.08375e-4 H 0.90088281 Z m 0,0"
         style="fill:#345587;fill-opacity:1;fill-rule:nonzero;stroke:none"
         aria-label="E"
         transform="matrix(1.3333333,0,0,1.2243649,1020.1387,483.812)" />
      <path
         id="path94"
         d="m 7392.55,-1164.86 h 147.77 l -5.06,26.59 h -116.45 l -13.48,69.21 h 111.83 l -5.28,26.59 h -111.61 l -16.37,84.789 h 119.13 l -5.23,26.607 h -150.73 z"
         style="fill:none;stroke:#345587;stroke-width:20.952;stroke-linecap:butt;stroke-linejoin:miter;stroke-miterlimit:4;stroke-dasharray:none;stroke-opacity:1"
         transform="matrix(0.13901467,0,0,0.12765213,0,602.66667)" />
      <path
         id="path95"
         d="m 8.4244375,-21.656228 -1.6640625,8.652445 h 4.242188 c 1.664062,0 3.005859,-0.459422 4.03125,-1.378266 1.03125,-0.918843 1.546875,-2.118445 1.546875,-3.598804 0,-1.190031 -0.348633,-2.099303 -1.042969,-2.731008 -0.688477,-0.628515 -1.681641,-0.944367 -2.976563,-0.944367 z m 6.0468755,9.95414 c 0.694335,0.162712 1.271484,0.567897 1.734375,1.212364 0.46875,0.6380855 1.007812,1.9142574 1.617187,3.8285152 L 19.897094,4.08375e-4 H 16.416625 L 14.506469,-6.2528338 C 14.014281,-7.8608104 13.445922,-8.9359852 12.80725,-9.4815487 12.165648,-10.023922 11.181273,-10.298299 9.854125,-10.298299 H 6.2213125 L 4.2056875,4.08375e-4 H 0.901 L 5.6470938,-24.361713 h 7.4179692 c 2.255859,0 3.984375,0.510469 5.179687,1.531407 1.201172,1.014556 1.804688,2.475773 1.804688,4.390031 0,1.694118 -0.512696,3.161716 -1.535157,4.402793 -1.016601,1.244267 -2.364258,2.022732 -4.042968,2.335394 z m 0,0"
         style="fill:#345587;fill-opacity:1;fill-rule:nonzero;stroke:none"
         aria-label="R"
         transform="matrix(1.3333333,0,0,1.2243649,1048.2987,483.812)" />
      <path
         id="path96"
         d="m 7621.8,-1138.76 -16,83 h 40.63 c 15.96,0 28.84,-4.41 38.73,-13.3 9.97,-8.82 14.95,-20.4 14.95,-34.61 0,-11.3 -3.41,-19.95 -10.11,-25.91 -6.64,-6.08 -16.15,-9.18 -28.4,-9.18 z m 58.04,95.36 c 6.6,1.55 12.11,5.47 16.41,11.7 4.54,6.13 9.78,18.32 15.59,36.691 l 20.05,63.935 h -33.46 l -18.33,-60.063 c -4.61,-15.423 -10.03,-25.703 -16.18,-30.933 -6.23,-5.14 -15.7,-7.79 -28.48,-7.79 h -34.88 l -19.15,98.786 h -31.84 l 45.44,-233.786 h 71.38 c 21.62,0 38.14,4.92 49.71,14.68 11.4,9.79 17.28,23.82 17.28,42.14 0,16.41 -4.95,30.49 -14.76,42.44 -9.81,11.8 -22.7,19.18 -38.78,22.2 z"
         style="fill:none;stroke:#345587;stroke-width:20.952;stroke-linecap:butt;stroke-linejoin:miter;stroke-miterlimit:4;stroke-dasharray:none;stroke-opacity:1"
         transform="matrix(0.13901467,0,0,0.12765213,0,602.66667)" />
      <path
         id="path97"
         d="M 5.1671875,-24.361713 H 8.4835938 L 5.6125,-9.558119 c -0.1171875,0.6636094 -0.2050781,1.2123633 -0.2578125,1.6462618 -0.046875,0.4275175 -0.070312,0.8007978 -0.070312,1.1230312 0,1.499502 0.4160156,2.6384854 1.2539063,3.4201406 0.84375,0.7752744 2.0742187,1.1613164 3.6914062,1.1613164 2.100585,0 3.732421,-0.5742773 4.898437,-1.722832 1.171875,-1.1549355 2.006836,-3.0309082 2.507813,-5.627918 l 2.871093,-14.803594 h 3.316407 L 20.89375,-9.149744 c -0.650391,3.2861426 -1.87207,5.7108692 -3.667969,7.2741797 -1.790039,1.566501 -4.248047,2.34815627 -7.3710935,2.34815627 -2.4375,0 -4.3681641,-0.6125625 -5.7890625,-1.83768747 -1.4150391,-1.225125 -2.1210937,-2.8841485 -2.1210937,-4.9770703 0,-0.3828516 0.026367,-0.8071788 0.082031,-1.2761719 0.052734,-0.475374 0.1347656,-0.9858428 0.2460938,-1.5314063 z m 0,0"
         style="fill:#345587;fill-opacity:1;fill-rule:nonzero;stroke:none"
         aria-label="U"
         transform="matrix(1.3333333,0,0,1.2243649,1079.2667,483.812)" />
      <path
         id="path98"
         d="m 7813.41,-1164.86 h 31.84 l -27.57,142.1 c -1.16,6.29 -2.07,11.46 -2.55,15.59 -0.41,4.12 -0.67,7.795 -0.67,10.969 0,14.407 4.04,25.342 11.99,32.812 8.05,7.504 19.85,11.212 35.41,11.212 20.19,0 35.85,-5.504 47.17,-16.475 11.2,-11.147 19.18,-29.177 23.94,-54.108 l 27.61,-142.1 h 31.77 l -28.21,146.01 c -6.19,31.503 -17.88,54.764 -35.18,69.897 -17.16,15.018 -40.69,22.444 -70.74,22.444 -23.27,0 -41.78,-5.83 -55.52,-17.63 -13.6,-11.746 -20.39,-27.736 -20.39,-47.896 0,-3.676 0.26,-7.667 0.79,-12.155 0.52,-4.61 1.34,-9.47 2.36,-14.66 z"
         style="fill:none;stroke:#345587;stroke-width:20.952;stroke-linecap:butt;stroke-linejoin:miter;stroke-miterlimit:4;stroke-dasharray:none;stroke-opacity:1"
         transform="matrix(0.13901467,0,0,0.12765213,0,602.66667)" />
    </g>
  </g>
</svg>
